<?xml version="1.0" encoding="UTF-8" standalone="no"?>
<svg
style="background-color:white"
   xmlns:dc="http://purl.org/dc/elements/1.1/"
   xmlns:cc="http://creativecommons.org/ns#"
   xmlns:rdf="http://www.w3.org/1999/02/22-rdf-syntax-ns#"
   xmlns:svg="http://www.w3.org/2000/svg"
   xmlns="http://www.w3.org/2000/svg"
   viewBox="0 0 290.47867 170.75999"
   height="100%"
   width="100%"
   xml:space="preserve"
   id="svg2"
   version="1.1"><metadata
     id="metadata8"><rdf:RDF><cc:Work
         rdf:about=""><dc:format>image/svg+xml</dc:format><dc:type
           rdf:resource="http://purl.org/dc/dcmitype/StillImage" /></cc:Work></rdf:RDF></metadata><defs
     id="defs6"><clipPath
       id="clipPath174"
       clipPathUnits="userSpaceOnUse"><path
         id="path172"
         d="M 73.41983,0 H 244.59004 V 99.16939 H 73.41983 Z" /></clipPath></defs><g
     transform="matrix(1.3333333,0,0,-1.3333333,0,170.76)"
     id="g10"><g
       transform="translate(46.492,28.703)"
       id="g12"><g
         id="g14"><g
           id="g16" /><g
           id="g18"><g
             id="g20" /><g
             id="g22" /><g
             id="g24"><g
               id="g26" /></g><g
             id="g28" /><g
             id="g30" /><g
             id="g32" /><g
             id="g34" /><g
             transform="translate(-43.171,-28.703)"
             id="g36"><g
               transform="translate(-30.248,28.703)"
               id="g38"><g
                 id="g40"><g
                   id="g42" /><g
                   id="g44"><g
                     id="g46"><g
                       id="g48"><g
                         id="g50"><path
                           id="path52"
                           style="fill:none;stroke:#808080;stroke-width:0.19925;stroke-linecap:butt;stroke-linejoin:miter;stroke-miterlimit:10;stroke-dasharray:none;stroke-opacity:1"
                           d="M 78.56377,0 V 2.83525 M 87.46399,0 V 2.83525 M 94.98845,0 V 2.83525 M 101.50662,0 V 2.83525 M 107.25612,0 V 2.83525 M 112.39932,0 V 2.83525 M 146.23486,0 V 2.83525 M 166.02776,0 V 2.83525 M 180.07042,0 V 2.83525 M 190.96309,0 V 2.83525 M 199.86331,0 V 2.83525 M 207.38779,0 V 2.83525 M 213.90596,0 V 2.83525 M 219.65546,0 V 2.83525 M 78.56377,99.16939 v -2.83527 m 8.90022,2.83527 v -2.83527 m 7.52446,2.83527 v -2.83527 m 6.51817,2.83527 v -2.83527 m 5.7495,2.83527 v -2.83527 m 5.1432,2.83527 v -2.83527 m 33.83554,2.83527 v -2.83527 m 19.7929,2.83527 v -2.83527 m 14.04266,2.83527 v -2.83527 m 10.89267,2.83527 v -2.83527 m 8.90022,2.83527 v -2.83527 m 7.52448,2.83527 v -2.83527 m 6.51817,2.83527 v -2.83527 m 5.7495,2.83527 v -2.83527" /></g><g
                         id="g54"><path
                           id="path56"
                           style="fill:none;stroke:#808080;stroke-width:0.19925;stroke-linecap:butt;stroke-linejoin:miter;stroke-miterlimit:10;stroke-dasharray:none;stroke-opacity:1"
                           d="M 112.39932,0 V 4.25247 M 224.79866,0 V 4.25247 M 112.39932,99.16939 v -4.2525 m 112.39934,4.2525 v -4.2525" /></g></g><g
                       id="g58"><g
                         id="g60"><path
                           id="path62"
                           style="fill:none;stroke:#808080;stroke-width:0.19925;stroke-linecap:butt;stroke-linejoin:miter;stroke-miterlimit:10;stroke-dasharray:none;stroke-opacity:1"
                           d="m 73.41983,0 h 2.8334 m -2.8334,12.0515 h 2.8334 m -2.8334,7.04982 h 2.8334 m -2.8334,5.00169 h 2.8334 m -2.8334,3.87975 h 2.8334 m -2.8334,3.17007 h 2.8334 m -2.8334,2.68006 h 2.8334 m -2.8334,2.32165 h 2.8334 m -2.8334,2.04784 h 2.8334 m -2.8334,1.83191 h 2.8334 m -2.8334,12.05151 h 2.8334 m -2.8334,7.0498 h 2.8334 m -2.8334,5.00173 h 2.8334 m -2.8334,3.87973 h 2.8334 m -2.8334,3.17007 h 2.8334 m -2.8334,2.68007 h 2.8334 m -2.8334,2.32164 h 2.8334 m -2.8334,2.04784 h 2.8334 M 244.59004,0 h -2.8334 m 2.8334,12.0515 h -2.8334 m 2.8334,7.04982 h -2.8334 m 2.8334,5.00169 h -2.8334 m 2.8334,3.87975 h -2.8334 m 2.8334,3.17007 h -2.8334 m 2.8334,2.68006 h -2.8334 m 2.8334,2.32165 h -2.8334 m 2.8334,2.04784 h -2.8334 m 2.8334,1.83191 h -2.8334 m 2.8334,12.05151 h -2.8334 m 2.8334,7.0498 h -2.8334 m 2.8334,5.00173 h -2.8334 m 2.8334,3.87973 h -2.8334 m 2.8334,3.17007 h -2.8334 m 2.8334,2.68007 h -2.8334 m 2.8334,2.32164 h -2.8334 m 2.8334,2.04784 h -2.8334" /></g><g
                         id="g64"><path
                           id="path66"
                           style="fill:none;stroke:#808080;stroke-width:0.19925;stroke-linecap:butt;stroke-linejoin:miter;stroke-miterlimit:10;stroke-dasharray:none;stroke-opacity:1"
                           d="m 73.41983,0 h 4.24937 m -4.24937,40.03429 h 4.24937 m -4.24937,40.0343 H 77.6692 M 244.59004,0 h -4.24936 m 4.24936,40.03429 h -4.24936 m 4.24936,40.0343 h -4.24936" /></g></g><path
                       id="path68"
                       style="fill:none;stroke:#000000;stroke-width:0.3985;stroke-linecap:butt;stroke-linejoin:miter;stroke-miterlimit:10;stroke-dasharray:none;stroke-opacity:1"
                       d="M 73.41983,0 V 99.16939 H 244.59004 V 0 Z" /><g
                       id="g70"><g
                         transform="translate(105.182,-11.63)"
                         id="g72"><g
                           id="g74"><g
                             transform="translate(-78.255,-17.073)"
                             id="g76"><text
                               id="text80"
                               style="font-variant:normal;font-weight:normal;font-size:9.96259975px;font-family:CMR10;-inkscape-font-specification:CMR10;writing-mode:lr-tb;fill:#000000;fill-opacity:1;fill-rule:nonzero;stroke:none"
                               transform="matrix(1,0,0,-1,78.255,17.073)"><tspan
                                 id="tspan78"
                                 y="0"
                                 x="0 4.9812999">10</tspan></text>
<text
                               id="text84"
                               style="font-variant:normal;font-weight:normal;font-size:6.97380018px;font-family:CMR7;-inkscape-font-specification:CMR7;writing-mode:lr-tb;fill:#000000;fill-opacity:1;fill-rule:nonzero;stroke:none"
                               transform="matrix(1,0,0,-1,88.218,20.689)"><tspan
                                 id="tspan82"
                                 y="0"
                                 x="0">1</tspan></text>
<g
                               transform="translate(78.255,17.073)"
                               id="g86" /></g></g><g
                           transform="translate(-105.182,11.63)"
                           id="g88" /></g></g><g
                       id="g90"><g
                         transform="translate(217.58,-11.63)"
                         id="g92"><g
                           id="g94"><g
                             transform="translate(-190.653,-17.073)"
                             id="g96"><text
                               id="text100"
                               style="font-variant:normal;font-weight:normal;font-size:9.96259975px;font-family:CMR10;-inkscape-font-specification:CMR10;writing-mode:lr-tb;fill:#000000;fill-opacity:1;fill-rule:nonzero;stroke:none"
                               transform="matrix(1,0,0,-1,190.653,17.073)"><tspan
                                 id="tspan98"
                                 y="0"
                                 x="0 4.9812999">10</tspan></text>
<text
                               id="text104"
                               style="font-variant:normal;font-weight:normal;font-size:6.97380018px;font-family:CMR7;-inkscape-font-specification:CMR7;writing-mode:lr-tb;fill:#000000;fill-opacity:1;fill-rule:nonzero;stroke:none"
                               transform="matrix(1,0,0,-1,200.615,20.689)"><tspan
                                 id="tspan102"
                                 y="0"
                                 x="0">2</tspan></text>
<g
                               transform="translate(190.653,17.073)"
                               id="g106" /></g></g><g
                           transform="translate(-217.58,11.63)"
                           id="g108" /></g></g><g
                       id="g110"><g
                         transform="translate(55.467,-4.055)"
                         id="g112"><g
                           id="g114"><g
                             transform="translate(-28.54,-24.648)"
                             id="g116"><text
                               id="text120"
                               style="font-variant:normal;font-weight:normal;font-size:9.96259975px;font-family:CMR10;-inkscape-font-specification:CMR10;writing-mode:lr-tb;fill:#000000;fill-opacity:1;fill-rule:nonzero;stroke:none"
                               transform="matrix(1,0,0,-1,28.54,24.648)"><tspan
                                 id="tspan118"
                                 y="0"
                                 x="0 4.9812999">10</tspan></text>
<text
                               id="text124"
                               style="font-variant:normal;font-weight:normal;font-size:6.97380018px;font-family:CMR7;-inkscape-font-specification:CMR7;writing-mode:lr-tb;fill:#000000;fill-opacity:1;fill-rule:nonzero;stroke:none"
                               transform="matrix(1,0,0,-1,38.503,28.263)"><tspan
                                 id="tspan122"
                                 y="0"
                                 x="0">0</tspan></text>
<g
                               transform="translate(28.54,24.648)"
                               id="g126" /></g></g><g
                           transform="translate(-55.467,4.055)"
                           id="g128" /></g></g><g
                       id="g130"><g
                         transform="translate(55.467,35.979)"
                         id="g132"><g
                           id="g134"><g
                             transform="translate(-28.54,-64.682)"
                             id="g136"><text
                               id="text140"
                               style="font-variant:normal;font-weight:normal;font-size:9.96259975px;font-family:CMR10;-inkscape-font-specification:CMR10;writing-mode:lr-tb;fill:#000000;fill-opacity:1;fill-rule:nonzero;stroke:none"
                               transform="matrix(1,0,0,-1,28.54,64.682)"><tspan
                                 id="tspan138"
                                 y="0"
                                 x="0 4.9812999">10</tspan></text>
<text
                               id="text144"
                               style="font-variant:normal;font-weight:normal;font-size:6.97380018px;font-family:CMR7;-inkscape-font-specification:CMR7;writing-mode:lr-tb;fill:#000000;fill-opacity:1;fill-rule:nonzero;stroke:none"
                               transform="matrix(1,0,0,-1,38.503,68.297)"><tspan
                                 id="tspan142"
                                 y="0"
                                 x="0">1</tspan></text>
<g
                               transform="translate(28.54,64.682)"
                               id="g146" /></g></g><g
                           transform="translate(-55.467,-35.979)"
                           id="g148" /></g></g><g
                       id="g150"><g
                         transform="translate(55.467,76.013)"
                         id="g152"><g
                           id="g154"><g
                             transform="translate(-28.54,-104.716)"
                             id="g156"><text
                               id="text160"
                               style="font-variant:normal;font-weight:normal;font-size:9.96259975px;font-family:CMR10;-inkscape-font-specification:CMR10;writing-mode:lr-tb;fill:#000000;fill-opacity:1;fill-rule:nonzero;stroke:none"
                               transform="matrix(1,0,0,-1,28.54,104.716)"><tspan
                                 id="tspan158"
                                 y="0"
                                 x="0 4.9812999">10</tspan></text>
<text
                               id="text164"
                               style="font-variant:normal;font-weight:normal;font-size:6.97380018px;font-family:CMR7;-inkscape-font-specification:CMR7;writing-mode:lr-tb;fill:#000000;fill-opacity:1;fill-rule:nonzero;stroke:none"
                               transform="matrix(1,0,0,-1,38.503,108.331)"><tspan
                                 id="tspan162"
                                 y="0"
                                 x="0">2</tspan></text>
<g
                               transform="translate(28.54,104.716)"
                               id="g166" /></g></g><g
                           transform="translate(-55.467,-76.013)"
                           id="g168" /></g></g><g
                       clip-path="url(#clipPath174)"
                       id="g170"><g
                         id="g176"><path
                           id="path178"
                           style="fill:none;stroke:#d9d9d9;stroke-width:2.83484006;stroke-linecap:butt;stroke-linejoin:miter;stroke-miterlimit:10;stroke-dasharray:none;stroke-opacity:1"
                           d="M 89.0602,92.11852 V 50.19902" /><g
                           transform="rotate(-90,69.62961,-19.43059)"
                           id="g180"><g
                             id="g182"><path
                               id="path184"
                               style="fill:#d9d9d9;fill-opacity:1;fill-rule:nonzero;stroke:none"
                               d="M 10.16473,0 C 7.15292,0.5647 2.25882,2.25882 -1.12941,4.23529 V -4.23529 C 2.25882,-2.25882 7.15292,-0.5647 10.16473,0" /></g></g></g><g
                         id="g186"><g
                           transform="translate(89.327,29.595)"
                           id="g188"><g
                             id="g190"><g
                               transform="translate(-62.4,-58.298)"
                               id="g192"><text
                                 id="text200"
                                 style="font-variant:normal;font-weight:normal;font-size:9.96259975px;font-family:CMR10;-inkscape-font-specification:CMR10;writing-mode:lr-tb;fill:#808080;fill-opacity:1;fill-rule:nonzero;stroke:none"
                                 transform="matrix(1,0,0,-1,62.4,58.298)"><tspan
                                   id="tspan194"
                                   y="0"
                                   x="0 5.5352206 13.837055 18.818356 21.585966 24.353575 28.780954">Smaller</tspan><tspan
                                   id="tspan196"
                                   y="11.955"
                                   x="0 6.7805457 10.682896 15.664196 21.199417 23.967028 28.394405">Problem</tspan><tspan
                                   id="tspan198"
                                   y="23.91"
                                   x="0 5.8141732 10.241552 17.461449 24.656439 31.436985 42.226479 46.653858 51.635159 55.53751">perCPUcore</tspan></text>
<g
                                 transform="translate(62.4,58.298)"
                                 id="g202" /></g></g><g
                             transform="translate(-89.327,-29.595)"
                             id="g204" /></g></g><g
                         id="g206"><path
                           id="path208"
                           style="fill:none;stroke:#cf2525;stroke-width:0.79701;stroke-linecap:butt;stroke-linejoin:miter;stroke-miterlimit:10;stroke-dasharray:none;stroke-opacity:1"
                           d="M 101.50662,80.1243 135.3392,68.64503 169.17401,57.04346 203.00955,45.50742 236.84883,34.22473" /></g><g
                         id="g210"><path
                           id="path212"
                           style="fill:none;stroke:#cf2525;stroke-width:0.79701;stroke-linecap:butt;stroke-linejoin:miter;stroke-miterlimit:10;stroke-dasharray:2.98883, 2.98883;stroke-dashoffset:0;stroke-opacity:1"
                           d="M 101.50662,80.1243 135.3392,68.07225 169.17401,56.02072 203.00955,43.96921 236.84883,31.91718" /></g><g
                         id="g214"><path
                           id="path216"
                           style="fill:none;stroke:#255bcf;stroke-width:0.79701;stroke-linecap:butt;stroke-linejoin:miter;stroke-miterlimit:10;stroke-dasharray:none;stroke-opacity:1"
                           d="m 101.50662,68.76575 33.83258,-12.038 33.83481,-11.51509 33.83554,-11.35695 33.83928,-10.73748" /></g><g
                         id="g218"><path
                           id="path220"
                           style="fill:none;stroke:#255bcf;stroke-width:0.79701;stroke-linecap:butt;stroke-linejoin:miter;stroke-miterlimit:10;stroke-dasharray:2.98883, 2.98883;stroke-dashoffset:0;stroke-opacity:1"
                           d="M 101.50662,68.76839 135.3392,56.71715 169.17401,44.66562 203.00955,32.61357 236.84883,20.56207" /></g><g
                         id="g222"><path
                           id="path224"
                           style="fill:none;stroke:#25cf5b;stroke-width:0.79701;stroke-linecap:butt;stroke-linejoin:miter;stroke-miterlimit:10;stroke-dasharray:none;stroke-opacity:1"
                           d="M 101.50662,57.20636 135.3392,45.44376 169.17401,34.00427 203.00955,22.65263 236.84883,11.6103" /></g><g
                         id="g226"><path
                           id="path228"
                           style="fill:none;stroke:#25cf5b;stroke-width:0.79701;stroke-linecap:butt;stroke-linejoin:miter;stroke-miterlimit:10;stroke-dasharray:2.98883, 2.98883;stroke-dashoffset:0;stroke-opacity:1"
                           d="M 101.50662,57.20636 135.3392,45.15485 169.17401,33.10225 203.00955,21.05075 236.84883,8.99896" /></g><g
                         id="g230"><g
                           transform="translate(80.713,76.719)"
                           id="g232"><g
                             id="g234"><g
                               transform="translate(-53.786,-105.422)"
                               id="g236"><text
                                 id="text240"
                                 style="font-variant:normal;font-weight:normal;font-size:9.96259975px;font-family:CMR10;-inkscape-font-specification:CMR10;writing-mode:lr-tb;fill:#cf2525;fill-opacity:1;fill-rule:nonzero;stroke:none"
                                 transform="matrix(1,0,0,-1,53.786,105.422)"><tspan
                                   id="tspan238"
                                   y="0"
                                   x="0 4.9812999">8M</tspan></text>
<g
                                 transform="translate(53.786,105.422)"
                                 id="g242" /></g></g><g
                             transform="translate(-80.713,-76.719)"
                             id="g244" /></g></g><g
                         id="g246"><g
                           transform="translate(80.713,65.363)"
                           id="g248"><g
                             id="g250"><g
                               transform="translate(-53.786,-94.066)"
                               id="g252"><text
                                 id="text256"
                                 style="font-variant:normal;font-weight:normal;font-size:9.96259975px;font-family:CMR10;-inkscape-font-specification:CMR10;writing-mode:lr-tb;fill:#255bcf;fill-opacity:1;fill-rule:nonzero;stroke:none"
                                 transform="matrix(1,0,0,-1,53.786,94.066)"><tspan
                                   id="tspan254"
                                   y="0"
                                   x="0 4.9812999">4M</tspan></text>
<g
                                 transform="translate(53.786,94.066)"
                                 id="g258" /></g></g><g
                             transform="translate(-80.713,-65.363)"
                             id="g260" /></g></g><g
                         id="g262"><g
                           transform="translate(80.713,53.802)"
                           id="g264"><g
                             id="g266"><g
                               transform="translate(-53.786,-82.505)"
                               id="g268"><text
                                 id="text272"
                                 style="font-variant:normal;font-weight:normal;font-size:9.96259975px;font-family:CMR10;-inkscape-font-specification:CMR10;writing-mode:lr-tb;fill:#25cf5b;fill-opacity:1;fill-rule:nonzero;stroke:none"
                                 transform="matrix(1,0,0,-1,53.786,82.505)"><tspan
                                   id="tspan270"
                                   y="0"
                                   x="0 4.9812999">2M</tspan></text>
<g
                                 transform="translate(53.786,82.505)"
                                 id="g274" /></g></g><g
                             transform="translate(-80.713,-53.802)"
                             id="g276" /></g></g></g></g><g
                     id="g278"><path
                       id="path280"
                       style="fill:#cf2525;fill-opacity:1;fill-rule:nonzero;stroke:#cf2525;stroke-width:0.79701;stroke-linecap:butt;stroke-linejoin:miter;stroke-miterlimit:10;stroke-dasharray:none;stroke-opacity:1"
                       d="m 103.49918,80.1243 c 0,1.10048 -0.89208,1.99255 -1.99256,1.99255 -1.10046,0 -1.99255,-0.89207 -1.99255,-1.99255 0,-1.10047 0.89209,-1.99256 1.99255,-1.99256 1.10048,0 1.99256,0.89209 1.99256,1.99256 z" /><path
                       id="path282"
                       style="fill:#cf2525;fill-opacity:1;fill-rule:nonzero;stroke:#cf2525;stroke-width:0.79701;stroke-linecap:butt;stroke-linejoin:miter;stroke-miterlimit:10;stroke-dasharray:none;stroke-opacity:1"
                       d="m 137.33176,68.64503 c 0,1.10047 -0.89208,1.99256 -1.99256,1.99256 -1.10046,0 -1.99255,-0.89209 -1.99255,-1.99256 0,-1.10047 0.89209,-1.99255 1.99255,-1.99255 1.10048,0 1.99256,0.89208 1.99256,1.99255 z" /><path
                       id="path284"
                       style="fill:#cf2525;fill-opacity:1;fill-rule:nonzero;stroke:#cf2525;stroke-width:0.79701;stroke-linecap:butt;stroke-linejoin:miter;stroke-miterlimit:10;stroke-dasharray:none;stroke-opacity:1"
                       d="m 171.16656,57.04346 c 0,1.10046 -0.89208,1.99255 -1.99255,1.99255 -1.10048,0 -1.99255,-0.89209 -1.99255,-1.99255 0,-1.10048 0.89207,-1.99256 1.99255,-1.99256 1.10047,0 1.99255,0.89208 1.99255,1.99256 z" /><path
                       id="path286"
                       style="fill:#cf2525;fill-opacity:1;fill-rule:nonzero;stroke:#cf2525;stroke-width:0.79701;stroke-linecap:butt;stroke-linejoin:miter;stroke-miterlimit:10;stroke-dasharray:none;stroke-opacity:1"
                       d="m 205.0021,45.50742 c 0,1.10048 -0.89207,1.99255 -1.99255,1.99255 -1.10046,0 -1.99255,-0.89207 -1.99255,-1.99255 0,-1.10047 0.89209,-1.99256 1.99255,-1.99256 1.10048,0 1.99255,0.89209 1.99255,1.99256 z" /><path
                       id="path288"
                       style="fill:#cf2525;fill-opacity:1;fill-rule:nonzero;stroke:#cf2525;stroke-width:0.79701;stroke-linecap:butt;stroke-linejoin:miter;stroke-miterlimit:10;stroke-dasharray:none;stroke-opacity:1"
                       d="m 238.84138,34.22473 c 0,1.10048 -0.89207,1.99256 -1.99255,1.99256 -1.10046,0 -1.99255,-0.89208 -1.99255,-1.99256 0,-1.10046 0.89209,-1.99255 1.99255,-1.99255 1.10048,0 1.99255,0.89209 1.99255,1.99255 z" /></g><g
                     id="g290"><path
                       id="path292"
                       style="fill:#255bcf;fill-opacity:1;fill-rule:nonzero;stroke:#255bcf;stroke-width:0.79701;stroke-linecap:butt;stroke-linejoin:miter;stroke-miterlimit:10;stroke-dasharray:none;stroke-opacity:1"
                       d="m 103.49918,68.76575 c 0,1.10046 -0.89208,1.99255 -1.99256,1.99255 -1.10046,0 -1.99255,-0.89209 -1.99255,-1.99255 0,-1.10048 0.89209,-1.99255 1.99255,-1.99255 1.10048,0 1.99256,0.89207 1.99256,1.99255 z" /><path
                       id="path294"
                       style="fill:#255bcf;fill-opacity:1;fill-rule:nonzero;stroke:#255bcf;stroke-width:0.79701;stroke-linecap:butt;stroke-linejoin:miter;stroke-miterlimit:10;stroke-dasharray:none;stroke-opacity:1"
                       d="m 137.33176,56.72775 c 0,1.10048 -0.89208,1.99255 -1.99256,1.99255 -1.10046,0 -1.99255,-0.89207 -1.99255,-1.99255 0,-1.10046 0.89209,-1.99255 1.99255,-1.99255 1.10048,0 1.99256,0.89209 1.99256,1.99255 z" /><path
                       id="path296"
                       style="fill:#255bcf;fill-opacity:1;fill-rule:nonzero;stroke:#255bcf;stroke-width:0.79701;stroke-linecap:butt;stroke-linejoin:miter;stroke-miterlimit:10;stroke-dasharray:none;stroke-opacity:1"
                       d="m 171.16656,45.21266 c 0,1.10048 -0.89208,1.99256 -1.99255,1.99256 -1.10048,0 -1.99255,-0.89208 -1.99255,-1.99256 0,-1.10046 0.89207,-1.99255 1.99255,-1.99255 1.10047,0 1.99255,0.89209 1.99255,1.99255 z" /><path
                       id="path298"
                       style="fill:#255bcf;fill-opacity:1;fill-rule:nonzero;stroke:#255bcf;stroke-width:0.79701;stroke-linecap:butt;stroke-linejoin:miter;stroke-miterlimit:10;stroke-dasharray:none;stroke-opacity:1"
                       d="m 205.0021,33.85571 c 0,1.10047 -0.89207,1.99256 -1.99255,1.99256 -1.10046,0 -1.99255,-0.89209 -1.99255,-1.99256 0,-1.10048 0.89209,-1.99255 1.99255,-1.99255 1.10048,0 1.99255,0.89207 1.99255,1.99255 z" /><path
                       id="path300"
                       style="fill:#255bcf;fill-opacity:1;fill-rule:nonzero;stroke:#255bcf;stroke-width:0.79701;stroke-linecap:butt;stroke-linejoin:miter;stroke-miterlimit:10;stroke-dasharray:none;stroke-opacity:1"
                       d="m 238.84138,23.11823 c 0,1.10046 -0.89207,1.99255 -1.99255,1.99255 -1.10046,0 -1.99255,-0.89209 -1.99255,-1.99255 0,-1.10048 0.89209,-1.99256 1.99255,-1.99256 1.10048,0 1.99255,0.89208 1.99255,1.99256 z" /></g><g
                     id="g302"><path
                       id="path304"
                       style="fill:#25cf5b;fill-opacity:1;fill-rule:nonzero;stroke:#25cf5b;stroke-width:0.79701;stroke-linecap:butt;stroke-linejoin:miter;stroke-miterlimit:10;stroke-dasharray:none;stroke-opacity:1"
                       d="m 103.49918,57.20636 c 0,1.10046 -0.89208,1.99255 -1.99256,1.99255 -1.10046,0 -1.99255,-0.89209 -1.99255,-1.99255 0,-1.10046 0.89209,-1.99256 1.99255,-1.99256 1.10048,0 1.99256,0.8921 1.99256,1.99256 z" /><path
                       id="path306"
                       style="fill:#25cf5b;fill-opacity:1;fill-rule:nonzero;stroke:#25cf5b;stroke-width:0.79701;stroke-linecap:butt;stroke-linejoin:miter;stroke-miterlimit:10;stroke-dasharray:none;stroke-opacity:1"
                       d="m 137.33176,45.44376 c 0,1.10046 -0.89208,1.99255 -1.99256,1.99255 -1.10046,0 -1.99255,-0.89209 -1.99255,-1.99255 0,-1.10048 0.89209,-1.99256 1.99255,-1.99256 1.10048,0 1.99256,0.89208 1.99256,1.99256 z" /><path
                       id="path308"
                       style="fill:#25cf5b;fill-opacity:1;fill-rule:nonzero;stroke:#25cf5b;stroke-width:0.79701;stroke-linecap:butt;stroke-linejoin:miter;stroke-miterlimit:10;stroke-dasharray:none;stroke-opacity:1"
                       d="m 171.16656,34.00427 c 0,1.10048 -0.89208,1.99256 -1.99255,1.99256 -1.10048,0 -1.99255,-0.89208 -1.99255,-1.99256 0,-1.10046 0.89207,-1.99255 1.99255,-1.99255 1.10047,0 1.99255,0.89209 1.99255,1.99255 z" /><path
                       id="path310"
                       style="fill:#25cf5b;fill-opacity:1;fill-rule:nonzero;stroke:#25cf5b;stroke-width:0.79701;stroke-linecap:butt;stroke-linejoin:miter;stroke-miterlimit:10;stroke-dasharray:none;stroke-opacity:1"
                       d="m 205.0021,22.65263 c 0,1.10047 -0.89207,1.99256 -1.99255,1.99256 -1.10046,0 -1.99255,-0.89209 -1.99255,-1.99256 0,-1.10048 0.89209,-1.99255 1.99255,-1.99255 1.10048,0 1.99255,0.89207 1.99255,1.99255 z" /><path
                       id="path312"
                       style="fill:#25cf5b;fill-opacity:1;fill-rule:nonzero;stroke:#25cf5b;stroke-width:0.79701;stroke-linecap:butt;stroke-linejoin:miter;stroke-miterlimit:10;stroke-dasharray:none;stroke-opacity:1"
                       d="m 238.84138,11.6103 c 0,1.10047 -0.89207,1.99256 -1.99255,1.99256 -1.10046,0 -1.99255,-0.89209 -1.99255,-1.99256 0,-1.10046 0.89209,-1.99255 1.99255,-1.99255 1.10048,0 1.99255,0.89209 1.99255,1.99255 z" /></g><g
                     id="g314"><g
                       transform="translate(110.864,-25.382)"
                       id="g316"><g
                         id="g318"><g
                           transform="translate(-83.937,-3.321)"
                           id="g320"><text
                             id="text324"
                             style="font-variant:normal;font-weight:normal;font-size:9.96259975px;font-family:CMR10;-inkscape-font-specification:CMR10;writing-mode:lr-tb;fill:#000000;fill-opacity:1;fill-rule:nonzero;stroke:none"
                             transform="matrix(1,0,0,-1,83.937,3.321)"><tspan
                               id="tspan322"
                               y="0"
                               x="0 7.4719501 13.007171 21.030052 26.844225 31.271605 38.491501 43.472801 49.844879 57.039871 63.820415 74.609909 79.037292 84.018593 87.920944 92.34832">NumberofCPUcores</tspan></text>
<g
                             transform="translate(83.937,3.321)"
                             id="g326" /></g></g><g
                         transform="translate(-110.864,25.382)"
                         id="g328" /></g></g><g
                     id="g330"><g
                       transform="rotate(90,9.579,31.461)"
                       id="g332"><g
                         id="g334"><g
                           transform="translate(-14.113,-50.585)"
                           id="g336"><text
                             id="text340"
                             style="font-variant:normal;font-weight:normal;font-size:9.96259975px;font-family:CMR10;-inkscape-font-specification:CMR10;writing-mode:lr-tb;fill:#000000;fill-opacity:1;fill-rule:nonzero;stroke:none"
                             transform="matrix(1,0,0,-1,14.113,50.585)"><tspan
                               id="tspan338"
                               y="0"
                               x="0 9.4126644 14.393965 17.161575 23.246731 27.121185 29.888796 38.190632 45.935555 48.703167 52.632416">Walltime[s]</tspan></text>
<g
                             transform="translate(14.113,50.585)"
                             id="g342" /></g></g><g
                         transform="translate(-41.04,-21.882)"
                         id="g344" /></g></g><g
                     id="g346"><g
                       id="g348" /><g
                       transform="translate(137.019,87.788)"
                       id="g350"><g
                         transform="translate(0.398)"
                         id="g352"><g
                           id="g354"><g
                             id="g356"><path
                               id="path358"
                               style="fill:none;stroke:#000000;stroke-width:0.79701;stroke-linecap:butt;stroke-linejoin:miter;stroke-miterlimit:10;stroke-dasharray:2.98883, 2.98883;stroke-dashoffset:0;stroke-opacity:1"
                               d="m 0,0 h 8.50412 8.50414" /></g></g><g
                           transform="translate(35.035)"
                           id="g360"><g
                             id="g362"><g
                               id="g364"><g
                                 transform="translate(-10.654,-2.712)"
                                 id="g366"><g
                                   id="g368"><g
                                   transform="translate(-134.871,-113.779)"
                                   id="g370"><text
                                   id="text374"
                                   style="font-variant:normal;font-weight:normal;font-size:9.96259975px;font-family:CMR10;-inkscape-font-specification:CMR10;writing-mode:lr-tb;fill:#000000;fill-opacity:1;fill-rule:nonzero;stroke:none"
                                   transform="matrix(1,0,0,-1,134.871,113.779)"><tspan
                                   id="tspan372"
                                   y="0"
                                   x="0 3.5974948 9.1327152 13.560095 18.541395">Ideal</tspan></text>
<g
                                   transform="translate(134.871,113.779)"
                                   id="g376" /></g></g><g
                                   transform="translate(10.654,2.712)"
                                   id="g378" /></g></g></g><g
                             transform="translate(18.027)"
                             id="g380"><g
                               id="g382"><g
                                 id="g384"><path
                                   id="path386"
                                   style="fill:none;stroke:#000000;stroke-width:0.79701;stroke-linecap:butt;stroke-linejoin:miter;stroke-miterlimit:10;stroke-dasharray:none;stroke-opacity:1"
                                   d="m 0,0 h 8.50412 8.50414" /><g
                                   id="g388"><path
                                   id="path390"
                                   style="fill:#000000;fill-opacity:1;fill-rule:nonzero;stroke:#000000;stroke-width:0.79701;stroke-linecap:butt;stroke-linejoin:miter;stroke-miterlimit:10;stroke-dasharray:none;stroke-opacity:1"
                                   d="m 10.49667,0 c 0,1.10046 -0.89209,1.99255 -1.99255,1.99255 C 7.40364,1.99255 6.51157,1.10046 6.51157,0 c 0,-1.10046 0.89207,-1.99255 1.99255,-1.99255 1.10046,0 1.99255,0.89209 1.99255,1.99255 z" /></g></g></g><g
                               transform="translate(35.658)"
                               id="g392"><g
                                 id="g394"><g
                                   id="g396"><g
                                   transform="translate(-11.277,-2.656)"
                                   id="g398"><g
                                   id="g400"><g
                                   transform="translate(-187.933,-113.835)"
                                   id="g402"><text
                                   id="text406"
                                   style="font-variant:normal;font-weight:normal;font-size:9.96259975px;font-family:CMR10;-inkscape-font-specification:CMR10;writing-mode:lr-tb;fill:#000000;fill-opacity:1;fill-rule:nonzero;stroke:none"
                                   transform="matrix(1,0,0,-1,187.933,113.835)"><tspan
                                   id="tspan404"
                                   y="0"
                                   x="0 9.1327152 15.357347">MFC</tspan></text>
<g
                                   transform="translate(187.933,113.835)"
                                   id="g408" /></g></g><g
                                   transform="translate(11.277,2.656)"
                                   id="g410" /></g></g></g><g
                                 transform="translate(-89.118)"
                                 id="g412" /></g></g></g></g><g
                         transform="translate(-137.019,-87.788)"
                         id="g414" /></g></g></g></g><g
                 transform="translate(30.248,-28.703)"
                 id="g416" /></g><g
               transform="translate(43.171,28.703)"
               id="g418" /></g><g
             id="g420" /><g
             id="g422" /></g></g></g></g></svg>