<?xml version="1.0" encoding="UTF-8" standalone="no"?>
<svg
style="background-color:white"
   xmlns:dc="http://purl.org/dc/elements/1.1/"
   xmlns:cc="http://creativecommons.org/ns#"
   xmlns:rdf="http://www.w3.org/1999/02/22-rdf-syntax-ns#"
   xmlns:svg="http://www.w3.org/2000/svg"
   xmlns="http://www.w3.org/2000/svg"
   viewBox="0 0 290.47867 180.328"
   height="100%"
   width="100%"
   xml:space="preserve"
   id="svg2"
   version="1.1"><metadata
     id="metadata8"><rdf:RDF><cc:Work
         rdf:about=""><dc:format>image/svg+xml</dc:format><dc:type
           rdf:resource="http://purl.org/dc/dcmitype/StillImage" /></cc:Work></rdf:RDF></metadata><defs
     id="defs6"><clipPath
       id="clipPath206"
       clipPathUnits="userSpaceOnUse"><path
         id="path204"
         d="M 73.41983,-99.16928 H 244.59004 V 0 H 73.41983 Z" /></clipPath></defs><g
     transform="matrix(1.3333333,0,0,-1.3333333,0,180.328)"
     id="g10"><g
       transform="translate(46.492,28.703)"
       id="g12"><g
         id="g14"><g
           id="g16" /><g
           id="g18"><g
             id="g20" /><g
             id="g22" /><g
             id="g24"><g
               id="g26" /></g><g
             id="g28" /><g
             id="g30" /><g
             id="g32" /><g
             id="g34" /><g
             transform="translate(-43.171,-28.703)"
             id="g36"><g
               transform="translate(-30.248,127.871)"
               id="g38"><g
                 id="g40"><g
                   id="g42" /><g
                   id="g44"><g
                     id="g46"><g
                       id="g48"><g
                         id="g50"><path
                           id="path52"
                           style="fill:none;stroke:#808080;stroke-width:0.19925;stroke-linecap:butt;stroke-linejoin:miter;stroke-miterlimit:10;stroke-dasharray:none;stroke-opacity:1"
                           d="m 78.56377,-99.16928 v 2.83111 m 8.90022,-2.83111 v 2.83111 m 7.52446,-2.83111 v 2.83111 m 6.51817,-2.83111 v 2.83111 m 5.7495,-2.83111 v 2.83111 m 5.1432,-2.83111 v 2.83111 m 33.83554,-2.83111 v 2.83111 m 19.7929,-2.83111 v 2.83111 m 14.04266,-2.83111 v 2.83111 m 10.89267,-2.83111 v 2.83111 m 8.90022,-2.83111 v 2.83111 m 7.52448,-2.83111 v 2.83111 m 6.51817,-2.83111 v 2.83111 m 5.7495,-2.83111 v 2.83111 M 78.56377,0 V -2.8311 M 87.46399,0 V -2.8311 M 94.98845,0 V -2.8311 M 101.50662,0 V -2.8311 M 107.25612,0 V -2.8311 M 112.39932,0 V -2.8311 M 146.23486,0 V -2.8311 M 166.02776,0 V -2.8311 M 180.07042,0 V -2.8311 M 190.96309,0 V -2.8311 M 199.86331,0 V -2.8311 M 207.38779,0 V -2.8311 M 213.90596,0 V -2.8311 M 219.65546,0 v -2.8311" /></g><g
                         id="g54"><path
                           id="path56"
                           style="fill:none;stroke:#808080;stroke-width:0.19925;stroke-linecap:butt;stroke-linejoin:miter;stroke-miterlimit:10;stroke-dasharray:none;stroke-opacity:1"
                           d="m 112.39932,-99.16928 v 4.24623 m 112.39934,-4.24623 v 4.24623 M 112.39932,0 V -4.24623 M 224.79866,0 v -4.24623" /></g></g><g
                       id="g58"><g
                         id="g60"><path
                           id="path62"
                           style="fill:none;stroke:#808080;stroke-width:0.19925;stroke-linecap:butt;stroke-linejoin:miter;stroke-miterlimit:10;stroke-dasharray:none;stroke-opacity:1"
                           d="m 73.41983,-99.16928 h 2.8334 m -2.8334,9.95098 h 2.8334 m -2.8334,5.82104 h 2.8334 m -2.8334,4.12993 h 2.8334 m -2.8334,3.2035 h 2.8334 m -2.8334,2.61754 h 2.8334 m -2.8334,2.21294 h 2.8334 m -2.8334,1.91699 h 2.8334 m -2.8334,1.69092 h 2.8334 m -2.8334,1.51259 h 2.8334 m -2.8334,9.95097 h 2.8334 m -2.8334,5.82106 h 2.8334 m -2.8334,4.12992 h 2.8334 m -2.8334,3.20351 h 2.8334 m -2.8334,2.61753 h 2.8334 m -2.8334,2.21293 h 2.8334 m -2.8334,1.917 h 2.8334 m -2.8334,1.69091 h 2.8334 m -2.8334,1.51259 h 2.8334 m -2.8334,9.95098 h 2.8334 m -2.8334,5.82105 h 2.8334 m -2.8334,4.12992 h 2.8334 m -2.8334,3.20354 h 2.8334 m -2.8334,2.61752 h 2.8334 m -2.8334,2.21294 h 2.8334 m -2.8334,1.91698 h 2.8334 m -2.8334,1.69091 h 2.8334 m 168.33681,-97.65669 h -2.8334 m 2.8334,9.95098 h -2.8334 m 2.8334,5.82104 h -2.8334 m 2.8334,4.12993 h -2.8334 m 2.8334,3.2035 h -2.8334 m 2.8334,2.61754 h -2.8334 m 2.8334,2.21294 h -2.8334 m 2.8334,1.91699 h -2.8334 m 2.8334,1.69092 h -2.8334 m 2.8334,1.51259 h -2.8334 m 2.8334,9.95097 h -2.8334 m 2.8334,5.82106 h -2.8334 m 2.8334,4.12992 h -2.8334 m 2.8334,3.20351 h -2.8334 m 2.8334,2.61753 h -2.8334 m 2.8334,2.21293 h -2.8334 m 2.8334,1.917 h -2.8334 m 2.8334,1.69091 h -2.8334 m 2.8334,1.51259 h -2.8334 m 2.8334,9.95098 h -2.8334 m 2.8334,5.82105 h -2.8334 m 2.8334,4.12992 h -2.8334 m 2.8334,3.20354 h -2.8334 m 2.8334,2.61752 h -2.8334 m 2.8334,2.21294 h -2.8334 m 2.8334,1.91698 h -2.8334 m 2.8334,1.69091 h -2.8334" /></g><g
                         id="g64"><path
                           id="path66"
                           style="fill:none;stroke:#808080;stroke-width:0.19925;stroke-linecap:butt;stroke-linejoin:miter;stroke-miterlimit:10;stroke-dasharray:none;stroke-opacity:1"
                           d="m 73.41983,-99.16928 h 4.24937 m -4.24937,33.05643 h 4.24937 m -4.24937,33.05642 H 77.6692 M 73.41983,0 h 4.24937 m 166.92084,-99.16928 h -4.24936 m 4.24936,33.05643 h -4.24936 m 4.24936,33.05642 h -4.24936 M 244.59004,0 h -4.24936" /></g></g><path
                       id="path68"
                       style="fill:none;stroke:#000000;stroke-width:0.3985;stroke-linecap:butt;stroke-linejoin:miter;stroke-miterlimit:10;stroke-dasharray:none;stroke-opacity:1"
                       d="M 73.41983,-99.16928 V 0 h 171.17021 v -99.16928 z" /><g
                       id="g70"><g
                         transform="translate(105.182,-110.798)"
                         id="g72"><g
                           id="g74"><g
                             transform="translate(-78.255,-17.073)"
                             id="g76"><text
                               id="text80"
                               style="font-variant:normal;font-weight:normal;font-size:9.96259975px;font-family:CMR10;-inkscape-font-specification:CMR10;writing-mode:lr-tb;fill:#000000;fill-opacity:1;fill-rule:nonzero;stroke:none"
                               transform="matrix(1,0,0,-1,78.255,17.073)"><tspan
                                 id="tspan78"
                                 y="0"
                                 x="0 4.9812999">10</tspan></text>
<text
                               id="text84"
                               style="font-variant:normal;font-weight:normal;font-size:6.97380018px;font-family:CMR7;-inkscape-font-specification:CMR7;writing-mode:lr-tb;fill:#000000;fill-opacity:1;fill-rule:nonzero;stroke:none"
                               transform="matrix(1,0,0,-1,88.218,20.689)"><tspan
                                 id="tspan82"
                                 y="0"
                                 x="0">1</tspan></text>
<g
                               transform="translate(78.255,17.073)"
                               id="g86" /></g></g><g
                           transform="translate(-105.182,110.798)"
                           id="g88" /></g></g><g
                       id="g90"><g
                         transform="translate(217.58,-110.798)"
                         id="g92"><g
                           id="g94"><g
                             transform="translate(-190.653,-17.073)"
                             id="g96"><text
                               id="text100"
                               style="font-variant:normal;font-weight:normal;font-size:9.96259975px;font-family:CMR10;-inkscape-font-specification:CMR10;writing-mode:lr-tb;fill:#000000;fill-opacity:1;fill-rule:nonzero;stroke:none"
                               transform="matrix(1,0,0,-1,190.653,17.073)"><tspan
                                 id="tspan98"
                                 y="0"
                                 x="0 4.9812999">10</tspan></text>
<text
                               id="text104"
                               style="font-variant:normal;font-weight:normal;font-size:6.97380018px;font-family:CMR7;-inkscape-font-specification:CMR7;writing-mode:lr-tb;fill:#000000;fill-opacity:1;fill-rule:nonzero;stroke:none"
                               transform="matrix(1,0,0,-1,200.615,20.689)"><tspan
                                 id="tspan102"
                                 y="0"
                                 x="0">2</tspan></text>
<g
                               transform="translate(190.653,17.073)"
                               id="g106" /></g></g><g
                           transform="translate(-217.58,110.798)"
                           id="g108" /></g></g><g
                       id="g110"><g
                         transform="translate(49.24,-103.223)"
                         id="g112"><g
                           id="g114"><g
                             transform="translate(-22.313,-24.648)"
                             id="g116"><text
                               id="text120"
                               style="font-variant:normal;font-weight:normal;font-size:9.96259975px;font-family:CMR10;-inkscape-font-specification:CMR10;writing-mode:lr-tb;fill:#000000;fill-opacity:1;fill-rule:nonzero;stroke:none"
                               transform="matrix(1,0,0,-1,22.313,24.648)"><tspan
                                 id="tspan118"
                                 y="0"
                                 x="0 4.9812999">10</tspan></text>
<text
                               id="text124"
                               style="font-variant:normal;font-weight:normal;font-size:6.97380018px;font-family:CMSY7;-inkscape-font-specification:CMSY7;writing-mode:lr-tb;fill:#000000;fill-opacity:1;fill-rule:nonzero;stroke:none"
                               transform="matrix(1,0,0,-1,32.276,28.263)"><tspan
                                 id="tspan122"
                                 y="0"
                                 x="0">−</tspan></text>
<text
                               id="text128"
                               style="font-variant:normal;font-weight:normal;font-size:6.97380018px;font-family:CMR7;-inkscape-font-specification:CMR7;writing-mode:lr-tb;fill:#000000;fill-opacity:1;fill-rule:nonzero;stroke:none"
                               transform="matrix(1,0,0,-1,38.503,28.263)"><tspan
                                 id="tspan126"
                                 y="0"
                                 x="0">3</tspan></text>
<g
                               transform="translate(22.313,24.648)"
                               id="g130" /></g></g><g
                           transform="translate(-49.24,103.223)"
                           id="g132" /></g></g><g
                       id="g134"><g
                         transform="translate(49.24,-70.167)"
                         id="g136"><g
                           id="g138"><g
                             transform="translate(-22.313,-57.704)"
                             id="g140"><text
                               id="text144"
                               style="font-variant:normal;font-weight:normal;font-size:9.96259975px;font-family:CMR10;-inkscape-font-specification:CMR10;writing-mode:lr-tb;fill:#000000;fill-opacity:1;fill-rule:nonzero;stroke:none"
                               transform="matrix(1,0,0,-1,22.313,57.704)"><tspan
                                 id="tspan142"
                                 y="0"
                                 x="0 4.9812999">10</tspan></text>
<text
                               id="text148"
                               style="font-variant:normal;font-weight:normal;font-size:6.97380018px;font-family:CMSY7;-inkscape-font-specification:CMSY7;writing-mode:lr-tb;fill:#000000;fill-opacity:1;fill-rule:nonzero;stroke:none"
                               transform="matrix(1,0,0,-1,32.276,61.319)"><tspan
                                 id="tspan146"
                                 y="0"
                                 x="0">−</tspan></text>
<text
                               id="text152"
                               style="font-variant:normal;font-weight:normal;font-size:6.97380018px;font-family:CMR7;-inkscape-font-specification:CMR7;writing-mode:lr-tb;fill:#000000;fill-opacity:1;fill-rule:nonzero;stroke:none"
                               transform="matrix(1,0,0,-1,38.503,61.319)"><tspan
                                 id="tspan150"
                                 y="0"
                                 x="0">2</tspan></text>
<g
                               transform="translate(22.313,57.704)"
                               id="g154" /></g></g><g
                           transform="translate(-49.24,70.167)"
                           id="g156" /></g></g><g
                       id="g158"><g
                         transform="translate(49.24,-37.111)"
                         id="g160"><g
                           id="g162"><g
                             transform="translate(-22.313,-90.76)"
                             id="g164"><text
                               id="text168"
                               style="font-variant:normal;font-weight:normal;font-size:9.96259975px;font-family:CMR10;-inkscape-font-specification:CMR10;writing-mode:lr-tb;fill:#000000;fill-opacity:1;fill-rule:nonzero;stroke:none"
                               transform="matrix(1,0,0,-1,22.313,90.76)"><tspan
                                 id="tspan166"
                                 y="0"
                                 x="0 4.9812999">10</tspan></text>
<text
                               id="text172"
                               style="font-variant:normal;font-weight:normal;font-size:6.97380018px;font-family:CMSY7;-inkscape-font-specification:CMSY7;writing-mode:lr-tb;fill:#000000;fill-opacity:1;fill-rule:nonzero;stroke:none"
                               transform="matrix(1,0,0,-1,32.276,94.375)"><tspan
                                 id="tspan170"
                                 y="0"
                                 x="0">−</tspan></text>
<text
                               id="text176"
                               style="font-variant:normal;font-weight:normal;font-size:6.97380018px;font-family:CMR7;-inkscape-font-specification:CMR7;writing-mode:lr-tb;fill:#000000;fill-opacity:1;fill-rule:nonzero;stroke:none"
                               transform="matrix(1,0,0,-1,38.503,94.375)"><tspan
                                 id="tspan174"
                                 y="0"
                                 x="0">1</tspan></text>
<g
                               transform="translate(22.313,90.76)"
                               id="g178" /></g></g><g
                           transform="translate(-49.24,37.111)"
                           id="g180" /></g></g><g
                       id="g182"><g
                         transform="translate(55.467,-4.055)"
                         id="g184"><g
                           id="g186"><g
                             transform="translate(-28.54,-123.816)"
                             id="g188"><text
                               id="text192"
                               style="font-variant:normal;font-weight:normal;font-size:9.96259975px;font-family:CMR10;-inkscape-font-specification:CMR10;writing-mode:lr-tb;fill:#000000;fill-opacity:1;fill-rule:nonzero;stroke:none"
                               transform="matrix(1,0,0,-1,28.54,123.816)"><tspan
                                 id="tspan190"
                                 y="0"
                                 x="0 4.9812999">10</tspan></text>
<text
                               id="text196"
                               style="font-variant:normal;font-weight:normal;font-size:6.97380018px;font-family:CMR7;-inkscape-font-specification:CMR7;writing-mode:lr-tb;fill:#000000;fill-opacity:1;fill-rule:nonzero;stroke:none"
                               transform="matrix(1,0,0,-1,38.503,127.431)"><tspan
                                 id="tspan194"
                                 y="0"
                                 x="0">0</tspan></text>
<g
                               transform="translate(28.54,123.816)"
                               id="g198" /></g></g><g
                           transform="translate(-55.467,4.055)"
                           id="g200" /></g></g><g
                       clip-path="url(#clipPath206)"
                       id="g202"><g
                         id="g208"><path
                           id="path210"
                           style="fill:none;stroke:#cf2525;stroke-width:0.79701;stroke-linecap:butt;stroke-linejoin:miter;stroke-miterlimit:10;stroke-dasharray:none;stroke-opacity:1"
                           d="m 101.50662,-18.63512 33.83258,-9.01778 33.83481,-10.32205 33.83554,-7.95205 33.83928,-5.10102" /></g><g
                         id="g212"><path
                           id="path214"
                           style="fill:none;stroke:#cf2525;stroke-width:0.79701;stroke-linecap:butt;stroke-linejoin:miter;stroke-miterlimit:10;stroke-dasharray:2.98883, 2.98883;stroke-dashoffset:0;stroke-opacity:1"
                           d="m 101.50662,-18.63512 33.83258,-9.95095 33.83481,-9.95142 33.83554,-9.95141 33.83928,-9.95098" /></g><g
                         id="g216"><path
                           id="path218"
                           style="fill:none;stroke:#255bcf;stroke-width:0.79701;stroke-linecap:butt;stroke-linejoin:miter;stroke-miterlimit:10;stroke-dasharray:none;stroke-opacity:1"
                           d="m 101.50662,-15.44649 33.83258,-7.73366 33.83481,-9.73367 33.83554,-8.93628 33.83928,-3.76365" /></g><g
                         id="g220"><path
                           id="path222"
                           style="fill:none;stroke:#255bcf;stroke-width:0.79701;stroke-linecap:butt;stroke-linejoin:miter;stroke-miterlimit:10;stroke-dasharray:2.98883, 2.98883;stroke-dashoffset:0;stroke-opacity:1"
                           d="m 101.50662,-15.44649 33.83258,-9.95097 33.83481,-9.95053 33.83554,-9.95098 33.83928,-9.95097" /></g><g
                         id="g224"><g
                           transform="translate(97.623,-72.72)"
                           id="g226"><g
                             id="g228"><g
                               transform="translate(-70.696,-55.151)"
                               id="g230"><text
                                 id="text234"
                                 style="font-variant:normal;font-weight:normal;font-size:9.96259975px;font-family:CMR10;-inkscape-font-specification:CMR10;writing-mode:lr-tb;fill:#cf2525;fill-opacity:1;fill-rule:nonzero;stroke:none"
                                 transform="matrix(1,0,0,-1,70.696,55.151)"><tspan
                                   id="tspan232"
                                   y="0"
                                   x="0 7.1949897 14.66694 23.799656 30.5802">CUMPI</tspan></text>
<g
                                 transform="translate(70.696,55.151)"
                                 id="g236" /></g></g><g
                             transform="translate(-97.623,72.72)"
                             id="g238" /></g></g><g
                         id="g240"><g
                           transform="translate(97.623,-86.801)"
                           id="g242"><g
                             id="g244"><g
                               transform="translate(-70.696,-41.07)"
                               id="g246"><text
                                 id="text250"
                                 style="font-variant:normal;font-weight:normal;font-size:9.96259975px;font-family:CMR10;-inkscape-font-specification:CMR10;writing-mode:lr-tb;fill:#255bcf;fill-opacity:1;fill-rule:nonzero;stroke:none"
                                 transform="matrix(1,0,0,-1,70.696,41.07)"><tspan
                                   id="tspan248"
                                   y="0"
                                   x="0 9.1327152 15.913261">MPI</tspan></text>
<g
                                 transform="translate(70.696,41.07)"
                                 id="g252" /></g></g><g
                             transform="translate(-97.623,86.801)"
                             id="g254" /></g></g></g></g><g
                     id="g256"><path
                       id="path258"
                       style="fill:#cf2525;fill-opacity:1;fill-rule:nonzero;stroke:#cf2525;stroke-width:0.79701;stroke-linecap:butt;stroke-linejoin:miter;stroke-miterlimit:10;stroke-dasharray:none;stroke-opacity:1"
                       d="m 103.49918,-18.63512 c 0,1.10048 -0.89208,1.99256 -1.99256,1.99256 -1.10046,0 -1.99255,-0.89208 -1.99255,-1.99256 0,-1.10046 0.89209,-1.99255 1.99255,-1.99255 1.10048,0 1.99256,0.89209 1.99256,1.99255 z" /><path
                       id="path260"
                       style="fill:#cf2525;fill-opacity:1;fill-rule:nonzero;stroke:#cf2525;stroke-width:0.79701;stroke-linecap:butt;stroke-linejoin:miter;stroke-miterlimit:10;stroke-dasharray:none;stroke-opacity:1"
                       d="m 137.33176,-27.6529 c 0,1.10049 -0.89208,1.99256 -1.99256,1.99256 -1.10046,0 -1.99255,-0.89207 -1.99255,-1.99256 0,-1.10046 0.89209,-1.99255 1.99255,-1.99255 1.10048,0 1.99256,0.89209 1.99256,1.99255 z" /><path
                       id="path262"
                       style="fill:#cf2525;fill-opacity:1;fill-rule:nonzero;stroke:#cf2525;stroke-width:0.79701;stroke-linecap:butt;stroke-linejoin:miter;stroke-miterlimit:10;stroke-dasharray:none;stroke-opacity:1"
                       d="m 171.16656,-37.97495 c 0,1.10047 -0.89208,1.99256 -1.99255,1.99256 -1.10048,0 -1.99255,-0.89209 -1.99255,-1.99256 0,-1.10046 0.89207,-1.99255 1.99255,-1.99255 1.10047,0 1.99255,0.89209 1.99255,1.99255 z" /><path
                       id="path264"
                       style="fill:#cf2525;fill-opacity:1;fill-rule:nonzero;stroke:#cf2525;stroke-width:0.79701;stroke-linecap:butt;stroke-linejoin:miter;stroke-miterlimit:10;stroke-dasharray:none;stroke-opacity:1"
                       d="m 205.0021,-45.927 c 0,1.10046 -0.89207,1.99255 -1.99255,1.99255 -1.10046,0 -1.99255,-0.89209 -1.99255,-1.99255 0,-1.10048 0.89209,-1.99256 1.99255,-1.99256 1.10048,0 1.99255,0.89208 1.99255,1.99256 z" /><path
                       id="path266"
                       style="fill:#cf2525;fill-opacity:1;fill-rule:nonzero;stroke:#cf2525;stroke-width:0.79701;stroke-linecap:butt;stroke-linejoin:miter;stroke-miterlimit:10;stroke-dasharray:none;stroke-opacity:1"
                       d="m 238.84138,-51.02802 c 0,1.10047 -0.89207,1.99256 -1.99255,1.99256 -1.10046,0 -1.99255,-0.89209 -1.99255,-1.99256 0,-1.10048 0.89209,-1.99255 1.99255,-1.99255 1.10048,0 1.99255,0.89207 1.99255,1.99255 z" /></g><g
                     id="g268"><path
                       id="path270"
                       style="fill:#255bcf;fill-opacity:1;fill-rule:nonzero;stroke:#255bcf;stroke-width:0.79701;stroke-linecap:butt;stroke-linejoin:miter;stroke-miterlimit:10;stroke-dasharray:none;stroke-opacity:1"
                       d="m 103.49918,-15.44649 c 0,1.10047 -0.89208,1.99256 -1.99256,1.99256 -1.10046,0 -1.99255,-0.89209 -1.99255,-1.99256 0,-1.10048 0.89209,-1.99255 1.99255,-1.99255 1.10048,0 1.99256,0.89207 1.99256,1.99255 z" /><path
                       id="path272"
                       style="fill:#255bcf;fill-opacity:1;fill-rule:nonzero;stroke:#255bcf;stroke-width:0.79701;stroke-linecap:butt;stroke-linejoin:miter;stroke-miterlimit:10;stroke-dasharray:none;stroke-opacity:1"
                       d="m 137.33176,-23.18015 c 0,1.10047 -0.89208,1.99256 -1.99256,1.99256 -1.10046,0 -1.99255,-0.89209 -1.99255,-1.99256 0,-1.10047 0.89209,-1.99255 1.99255,-1.99255 1.10048,0 1.99256,0.89208 1.99256,1.99255 z" /><path
                       id="path274"
                       style="fill:#255bcf;fill-opacity:1;fill-rule:nonzero;stroke:#255bcf;stroke-width:0.79701;stroke-linecap:butt;stroke-linejoin:miter;stroke-miterlimit:10;stroke-dasharray:none;stroke-opacity:1"
                       d="m 171.16656,-32.91382 c 0,1.10048 -0.89208,1.99256 -1.99255,1.99256 -1.10048,0 -1.99255,-0.89208 -1.99255,-1.99256 0,-1.10046 0.89207,-1.99255 1.99255,-1.99255 1.10047,0 1.99255,0.89209 1.99255,1.99255 z" /><path
                       id="path276"
                       style="fill:#255bcf;fill-opacity:1;fill-rule:nonzero;stroke:#255bcf;stroke-width:0.79701;stroke-linecap:butt;stroke-linejoin:miter;stroke-miterlimit:10;stroke-dasharray:none;stroke-opacity:1"
                       d="m 205.0021,-41.8501 c 0,1.10048 -0.89207,1.99256 -1.99255,1.99256 -1.10046,0 -1.99255,-0.89208 -1.99255,-1.99256 0,-1.10046 0.89209,-1.99255 1.99255,-1.99255 1.10048,0 1.99255,0.89209 1.99255,1.99255 z" /><path
                       id="path278"
                       style="fill:#255bcf;fill-opacity:1;fill-rule:nonzero;stroke:#255bcf;stroke-width:0.79701;stroke-linecap:butt;stroke-linejoin:miter;stroke-miterlimit:10;stroke-dasharray:none;stroke-opacity:1"
                       d="m 238.84138,-45.61375 c 0,1.10046 -0.89207,1.99255 -1.99255,1.99255 -1.10046,0 -1.99255,-0.89209 -1.99255,-1.99255 0,-1.10048 0.89209,-1.99256 1.99255,-1.99256 1.10048,0 1.99255,0.89208 1.99255,1.99256 z" /></g><g
                     id="g280"><path
                       id="path282"
                       style="fill:#cf2525;fill-opacity:1;fill-rule:nonzero;stroke:#cf2525;stroke-width:0.79701;stroke-linecap:butt;stroke-linejoin:miter;stroke-miterlimit:10;stroke-dasharray:none;stroke-opacity:1"
                       d="m 89.45505,-69.31636 c 0,1.10046 -0.89209,1.99256 -1.99255,1.99256 -1.10049,0 -1.99256,-0.8921 -1.99256,-1.99256 0,-1.10048 0.89207,-1.99255 1.99256,-1.99255 1.10046,0 1.99255,0.89207 1.99255,1.99255 z" /></g><g
                     id="g284"><path
                       id="path286"
                       style="fill:#255bcf;fill-opacity:1;fill-rule:nonzero;stroke:#255bcf;stroke-width:0.79701;stroke-linecap:butt;stroke-linejoin:miter;stroke-miterlimit:10;stroke-dasharray:none;stroke-opacity:1"
                       d="m 89.45505,-83.39769 c 0,1.10046 -0.89209,1.99255 -1.99255,1.99255 -1.10049,0 -1.99256,-0.89209 -1.99256,-1.99255 0,-1.10048 0.89207,-1.99255 1.99256,-1.99255 1.10046,0 1.99255,0.89207 1.99255,1.99255 z" /></g><g
                     id="g288"><g
                       transform="translate(121.083,-124.55)"
                       id="g290"><g
                         id="g292"><g
                           transform="translate(-94.156,-3.321)"
                           id="g294"><text
                             id="text298"
                             style="font-variant:normal;font-weight:normal;font-size:9.96259975px;font-family:CMR10;-inkscape-font-specification:CMR10;writing-mode:lr-tb;fill:#000000;fill-opacity:1;fill-rule:nonzero;stroke:none"
                             transform="matrix(1,0,0,-1,94.156,3.321)"><tspan
                               id="tspan296"
                               y="0"
                               x="0 7.4719501 13.007171 21.030052 26.844225 31.271605 38.491501 43.472801 49.844879 57.662533 64.443077 71.915031">NumberofGPUs</tspan></text>
<g
                             transform="translate(94.156,3.321)"
                             id="g300" /></g></g><g
                         transform="translate(-121.083,124.55)"
                         id="g302" /></g></g><g
                     id="g304"><g
                       transform="rotate(90,59.163,-18.123)"
                       id="g306"><g
                         id="g308"><g
                           transform="translate(-14.113,-50.585)"
                           id="g310"><text
                             id="text314"
                             style="font-variant:normal;font-weight:normal;font-size:9.96259975px;font-family:CMR10;-inkscape-font-specification:CMR10;writing-mode:lr-tb;fill:#000000;fill-opacity:1;fill-rule:nonzero;stroke:none"
                             transform="matrix(1,0,0,-1,14.113,50.585)"><tspan
                               id="tspan312"
                               y="0"
                               x="0 9.4126644 14.393965 17.161575 23.246731 27.121185 29.888796 38.190632 45.935555 48.703167 52.632416">Walltime[s]</tspan></text>
<g
                             transform="translate(14.113,50.585)"
                             id="g316" /></g></g><g
                         transform="translate(-41.04,77.286)"
                         id="g318" /></g></g><g
                     id="g320"><g
                       id="g322" /><g
                       transform="translate(137.019,-11.38)"
                       id="g324"><g
                         transform="translate(0.398)"
                         id="g326"><g
                           id="g328"><g
                             id="g330"><path
                               id="path332"
                               style="fill:none;stroke:#000000;stroke-width:0.79701;stroke-linecap:butt;stroke-linejoin:miter;stroke-miterlimit:10;stroke-dasharray:2.98883, 2.98883;stroke-dashoffset:0;stroke-opacity:1"
                               d="m 0,0 h 8.50412 8.50414" /></g></g><g
                           transform="translate(35.035)"
                           id="g334"><g
                             id="g336"><g
                               id="g338"><g
                                 transform="translate(-10.654,-2.712)"
                                 id="g340"><g
                                   id="g342"><g
                                   transform="translate(-134.871,-113.779)"
                                   id="g344"><text
                                   id="text348"
                                   style="font-variant:normal;font-weight:normal;font-size:9.96259975px;font-family:CMR10;-inkscape-font-specification:CMR10;writing-mode:lr-tb;fill:#000000;fill-opacity:1;fill-rule:nonzero;stroke:none"
                                   transform="matrix(1,0,0,-1,134.871,113.779)"><tspan
                                   id="tspan346"
                                   y="0"
                                   x="0 3.5974948 9.1327152 13.560095 18.541395">Ideal</tspan></text>
<g
                                   transform="translate(134.871,113.779)"
                                   id="g350" /></g></g><g
                                   transform="translate(10.654,2.712)"
                                   id="g352" /></g></g></g><g
                             transform="translate(18.027)"
                             id="g354"><g
                               id="g356"><g
                                 id="g358"><path
                                   id="path360"
                                   style="fill:none;stroke:#000000;stroke-width:0.79701;stroke-linecap:butt;stroke-linejoin:miter;stroke-miterlimit:10;stroke-dasharray:none;stroke-opacity:1"
                                   d="m 0,0 h 8.50412 8.50414" /><g
                                   id="g362"><path
                                   id="path364"
                                   style="fill:#000000;fill-opacity:1;fill-rule:nonzero;stroke:#000000;stroke-width:0.79701;stroke-linecap:butt;stroke-linejoin:miter;stroke-miterlimit:10;stroke-dasharray:none;stroke-opacity:1"
                                   d="m 10.49667,0 c 0,1.10046 -0.89209,1.99255 -1.99255,1.99255 C 7.40364,1.99255 6.51157,1.10046 6.51157,0 c 0,-1.10046 0.89207,-1.99255 1.99255,-1.99255 1.10046,0 1.99255,0.89209 1.99255,1.99255 z" /></g></g></g><g
                               transform="translate(35.658)"
                               id="g366"><g
                                 id="g368"><g
                                   id="g370"><g
                                   transform="translate(-11.278,-2.656)"
                                   id="g372"><g
                                   id="g374"><g
                                   transform="translate(-187.932,-113.835)"
                                   id="g376"><text
                                   id="text380"
                                   style="font-variant:normal;font-weight:normal;font-size:9.96259975px;font-family:CMR10;-inkscape-font-specification:CMR10;writing-mode:lr-tb;fill:#000000;fill-opacity:1;fill-rule:nonzero;stroke:none"
                                   transform="matrix(1,0,0,-1,187.932,113.835)"><tspan
                                   id="tspan378"
                                   y="0"
                                   x="0 9.1327152 15.357347">MFC</tspan></text>
<g
                                   transform="translate(187.932,113.835)"
                                   id="g382" /></g></g><g
                                   transform="translate(11.278,2.656)"
                                   id="g384" /></g></g></g><g
                                 transform="translate(-89.118)"
                                 id="g386" /></g></g></g></g><g
                         transform="translate(-137.019,11.38)"
                         id="g388" /></g></g></g></g><g
                 transform="translate(30.248,-127.871)"
                 id="g390" /></g><g
               transform="translate(43.171,28.703)"
               id="g392" /></g><g
             id="g394" /><g
             id="g396" /></g></g></g></g></svg>