solid Wedge2D_IBM
   facet normal -0.000000e+00 -0.000000e+00 1.000000e+00
      outer loop
         vertex 3.673940e-19 3.639702e-02 0.000000e+00
         vertex 1.000000e-01 0.000000e+00 0.000000e+00
         vertex 0.000000e+00 3.839702e-02 0.000000e+00
      endloop
   endfacet
   facet normal -0.000000e+00 0.000000e+00 1.000000e+00
      outer loop
         vertex 0.000000e+00 3.839702e-02 0.000000e+00
         vertex 1.000000e-01 0.000000e+00 0.000000e+00
         vertex 1.000000e-01 7.479405e-02 0.000000e+00
      endloop
   endfacet
endsolid Wedge2D_IBM