<?xml version="1.0" encoding="UTF-8" standalone="no"?>
<svg
   xmlns:dc="http://purl.org/dc/elements/1.1/"
   xmlns:cc="http://creativecommons.org/ns#"
   xmlns:rdf="http://www.w3.org/1999/02/22-rdf-syntax-ns#"
   xmlns:svg="http://www.w3.org/2000/svg"
   xmlns="http://www.w3.org/2000/svg"
   viewBox="0 0 346.01199 169.87334"
   height="100%"
   width="100%"
   xml:space="preserve"
   id="svg2"
   version="1.1"><metadata
     id="metadata8"><rdf:RDF><cc:Work
         rdf:about=""><dc:format>image/svg+xml</dc:format><dc:type
           rdf:resource="http://purl.org/dc/dcmitype/StillImage" /></cc:Work></rdf:RDF></metadata><defs
     id="defs6"><clipPath
       id="clipPath230"
       clipPathUnits="userSpaceOnUse"><path
         id="path228"
         d="M 95.86868,0 H 267.03894 V 84.76775 H 95.86868 Z" /></clipPath></defs><g
     transform="matrix(1.3333333,0,0,-1.3333333,0,169.87333)"
     id="g10"><g
       transform="translate(58.253,32.289)"
       id="g12"><g
         id="g14"><g
           id="g16" /><g
           id="g18"><g
             id="g20" /><g
             id="g22" /><g
             id="g24"><g
               id="g26" /></g><g
             id="g28" /><g
             id="g30" /><g
             id="g32" /><g
             id="g34" /><g
             transform="translate(-41.649,-28.702)"
             id="g36"><g
               transform="translate(-54.218,28.702)"
               id="g38"><g
                 id="g40"><g
                   id="g42" /><g
                   id="g44"><g
                     id="g46"><g
                       id="g48"><g
                         id="g50"><path
                           id="path52"
                           style="fill:none;stroke:#808080;stroke-width:0.19925;stroke-linecap:butt;stroke-linejoin:miter;stroke-miterlimit:10;stroke-dasharray:none;stroke-opacity:1"
                           d="M 95.86868,0 V 2.83502 M 98.4455,0 V 2.83502 M 100.75056,0 V 2.83502 M 115.91505,0 V 2.83502 M 124.78586,0 V 2.83502 M 131.07951,0 V 2.83502 M 135.96141,0 V 2.83502 M 139.95032,0 V 2.83502 M 143.32265,0 V 2.83502 M 146.24399,0 V 2.83502 M 148.8208,0 V 2.83502 M 151.12587,0 V 2.83502 M 166.29034,0 V 2.83502 M 175.16115,0 V 2.83502 M 181.4548,0 V 2.83502 M 186.3367,0 V 2.83502 M 190.32562,0 V 2.83502 M 193.69795,0 V 2.83502 M 196.61928,0 V 2.83502 M 199.19609,0 V 2.83502 M 201.50116,0 V 2.83502 M 216.66565,0 V 2.83502 M 225.53645,0 V 2.83502 M 231.83011,0 V 2.83502 M 236.712,0 V 2.83502 M 240.70091,0 V 2.83502 M 244.07324,0 V 2.83502 M 246.99457,0 V 2.83502 M 249.5714,0 V 2.83502 M 95.86868,84.76775 V 81.9327 m 2.57682,2.83505 V 81.9327 m 2.30506,2.83505 V 81.9327 m 15.16449,2.83505 V 81.9327 m 8.87081,2.83505 V 81.9327 m 6.29365,2.83505 V 81.9327 m 4.8819,2.83505 V 81.9327 m 3.98891,2.83505 V 81.9327 m 3.37233,2.83505 V 81.9327 m 2.92134,2.83505 V 81.9327 m 2.57681,2.83505 V 81.9327 m 2.30507,2.83505 V 81.9327 m 15.16447,2.83505 V 81.9327 m 8.87081,2.83505 V 81.9327 m 6.29365,2.83505 V 81.9327 m 4.8819,2.83505 V 81.9327 m 3.98892,2.83505 V 81.9327 m 3.37233,2.83505 V 81.9327 m 2.92133,2.83505 V 81.9327 m 2.57681,2.83505 V 81.9327 m 2.30507,2.83505 V 81.9327 m 15.16449,2.83505 V 81.9327 m 8.8708,2.83505 V 81.9327 m 6.29366,2.83505 V 81.9327 m 4.88189,2.83505 V 81.9327 m 3.98891,2.83505 V 81.9327 m 3.37233,2.83505 V 81.9327 m 2.92133,2.83505 V 81.9327 m 2.57683,2.83505 V 81.9327" /></g><g
                         id="g54"><path
                           id="path56"
                           style="fill:none;stroke:#808080;stroke-width:0.19925;stroke-linecap:butt;stroke-linejoin:miter;stroke-miterlimit:10;stroke-dasharray:none;stroke-opacity:1"
                           d="M 100.75056,0 V 4.25212 M 151.12587,0 V 4.25212 M 201.50116,0 V 4.25212 M 251.87646,0 V 4.25212 M 100.75056,84.76775 V 80.5156 m 50.37531,4.25215 V 80.5156 m 50.37529,4.25215 V 80.5156 m 50.3753,4.25215 V 80.5156" /></g></g><g
                       id="g58"><g
                         id="g60"><path
                           id="path62"
                           style="fill:none;stroke:#808080;stroke-width:0.19925;stroke-linecap:butt;stroke-linejoin:miter;stroke-miterlimit:10;stroke-dasharray:none;stroke-opacity:1"
                           d="m 95.86868,0 h 4.24829 m -4.24829,28.2559 h 4.24829 m -4.24829,28.25593 h 4.24829 m -4.24829,28.25592 h 4.24829 M 267.03894,0 h -4.24831 m 4.24831,28.2559 h -4.24831 m 4.24831,28.25593 h -4.24831 m 4.24831,28.25592 h -4.24831" /></g></g><path
                       id="path64"
                       style="fill:none;stroke:#000000;stroke-width:0.3985;stroke-linecap:butt;stroke-linejoin:miter;stroke-miterlimit:10;stroke-dasharray:none;stroke-opacity:1"
                       d="M 95.86868,0 V 84.76775 H 267.03894 V 0 Z" /><g
                       id="g66"><g
                         transform="translate(93.533,-11.629)"
                         id="g68"><g
                           id="g70"><g
                             transform="translate(-55.919,-20.66)"
                             id="g72"><text
                               id="text76"
                               style="font-variant:normal;font-weight:normal;font-size:9.96259975px;font-family:CMR10;-inkscape-font-specification:CMR10;writing-mode:lr-tb;fill:#000000;fill-opacity:1;fill-rule:nonzero;stroke:none"
                               transform="matrix(1,0,0,-1,55.919,20.66)"><tspan
                                 id="tspan74"
                                 y="0"
                                 x="0 4.9812999">10</tspan></text>
<text
                               id="text80"
                               style="font-variant:normal;font-weight:normal;font-size:6.97380018px;font-family:CMR7;-inkscape-font-specification:CMR7;writing-mode:lr-tb;fill:#000000;fill-opacity:1;fill-rule:nonzero;stroke:none"
                               transform="matrix(1,0,0,-1,65.882,24.275)"><tspan
                                 id="tspan78"
                                 y="0"
                                 x="0">2</tspan></text>
<g
                               transform="translate(55.919,20.66)"
                               id="g82" /></g></g><g
                           transform="translate(-93.533,11.629)"
                           id="g84" /></g></g><g
                       id="g86"><g
                         transform="translate(143.908,-11.629)"
                         id="g88"><g
                           id="g90"><g
                             transform="translate(-106.294,-20.66)"
                             id="g92"><text
                               id="text96"
                               style="font-variant:normal;font-weight:normal;font-size:9.96259975px;font-family:CMR10;-inkscape-font-specification:CMR10;writing-mode:lr-tb;fill:#000000;fill-opacity:1;fill-rule:nonzero;stroke:none"
                               transform="matrix(1,0,0,-1,106.294,20.66)"><tspan
                                 id="tspan94"
                                 y="0"
                                 x="0 4.9812999">10</tspan></text>
<text
                               id="text100"
                               style="font-variant:normal;font-weight:normal;font-size:6.97380018px;font-family:CMR7;-inkscape-font-specification:CMR7;writing-mode:lr-tb;fill:#000000;fill-opacity:1;fill-rule:nonzero;stroke:none"
                               transform="matrix(1,0,0,-1,116.257,24.275)"><tspan
                                 id="tspan98"
                                 y="0"
                                 x="0">3</tspan></text>
<g
                               transform="translate(106.294,20.66)"
                               id="g102" /></g></g><g
                           transform="translate(-143.908,11.629)"
                           id="g104" /></g></g><g
                       id="g106"><g
                         transform="translate(194.283,-11.629)"
                         id="g108"><g
                           id="g110"><g
                             transform="translate(-156.669,-20.66)"
                             id="g112"><text
                               id="text116"
                               style="font-variant:normal;font-weight:normal;font-size:9.96259975px;font-family:CMR10;-inkscape-font-specification:CMR10;writing-mode:lr-tb;fill:#000000;fill-opacity:1;fill-rule:nonzero;stroke:none"
                               transform="matrix(1,0,0,-1,156.669,20.66)"><tspan
                                 id="tspan114"
                                 y="0"
                                 x="0 4.9812999">10</tspan></text>
<text
                               id="text120"
                               style="font-variant:normal;font-weight:normal;font-size:6.97380018px;font-family:CMR7;-inkscape-font-specification:CMR7;writing-mode:lr-tb;fill:#000000;fill-opacity:1;fill-rule:nonzero;stroke:none"
                               transform="matrix(1,0,0,-1,166.631,24.275)"><tspan
                                 id="tspan118"
                                 y="0"
                                 x="0">4</tspan></text>
<g
                               transform="translate(156.669,20.66)"
                               id="g122" /></g></g><g
                           transform="translate(-194.283,11.629)"
                           id="g124" /></g></g><g
                       id="g126"><g
                         transform="translate(244.657,-11.629)"
                         id="g128"><g
                           id="g130"><g
                             transform="translate(-207.043,-20.66)"
                             id="g132"><text
                               id="text136"
                               style="font-variant:normal;font-weight:normal;font-size:9.96259975px;font-family:CMR10;-inkscape-font-specification:CMR10;writing-mode:lr-tb;fill:#000000;fill-opacity:1;fill-rule:nonzero;stroke:none"
                               transform="matrix(1,0,0,-1,207.043,20.66)"><tspan
                                 id="tspan134"
                                 y="0"
                                 x="0 4.9812999">10</tspan></text>
<text
                               id="text140"
                               style="font-variant:normal;font-weight:normal;font-size:6.97380018px;font-family:CMR7;-inkscape-font-specification:CMR7;writing-mode:lr-tb;fill:#000000;fill-opacity:1;fill-rule:nonzero;stroke:none"
                               transform="matrix(1,0,0,-1,217.006,24.275)"><tspan
                                 id="tspan138"
                                 y="0"
                                 x="0">5</tspan></text>
<g
                               transform="translate(207.043,20.66)"
                               id="g142" /></g></g><g
                           transform="translate(-244.657,11.629)"
                           id="g144" /></g></g><g
                       id="g146"><g
                         transform="translate(87.366,-3.21)"
                         id="g148"><g
                           id="g150"><g
                             transform="translate(-49.752,-29.079)"
                             id="g152"><text
                               id="text156"
                               style="font-variant:normal;font-weight:normal;font-size:9.96259975px;font-family:CMR10;-inkscape-font-specification:CMR10;writing-mode:lr-tb;fill:#000000;fill-opacity:1;fill-rule:nonzero;stroke:none"
                               transform="matrix(1,0,0,-1,49.752,29.079)"><tspan
                                 id="tspan154"
                                 y="0"
                                 x="0">0</tspan></text>
<g
                               transform="translate(49.752,29.079)"
                               id="g158" /></g></g><g
                           transform="translate(-87.366,3.21)"
                           id="g160" /></g></g><g
                       id="g162"><g
                         transform="translate(79.618,25.046)"
                         id="g164"><g
                           id="g166"><g
                             transform="translate(-42.004,-57.335)"
                             id="g168"><text
                               id="text172"
                               style="font-variant:normal;font-weight:normal;font-size:9.96259975px;font-family:CMR10;-inkscape-font-specification:CMR10;writing-mode:lr-tb;fill:#000000;fill-opacity:1;fill-rule:nonzero;stroke:none"
                               transform="matrix(1,0,0,-1,42.004,57.335)"><tspan
                                 id="tspan170"
                                 y="0"
                                 x="0">0</tspan></text>
<text
                               id="text176"
                               style="font-variant:normal;font-weight:normal;font-size:9.96259975px;font-family:CMMI10;-inkscape-font-specification:CMMI10;writing-mode:lr-tb;fill:#000000;fill-opacity:1;fill-rule:nonzero;stroke:none"
                               transform="matrix(1,0,0,-1,46.985,57.335)"><tspan
                                 id="tspan174"
                                 y="0"
                                 x="0">.</tspan></text>
<text
                               id="text180"
                               style="font-variant:normal;font-weight:normal;font-size:9.96259975px;font-family:CMR10;-inkscape-font-specification:CMR10;writing-mode:lr-tb;fill:#000000;fill-opacity:1;fill-rule:nonzero;stroke:none"
                               transform="matrix(1,0,0,-1,49.752,57.335)"><tspan
                                 id="tspan178"
                                 y="0"
                                 x="0">5</tspan></text>
<g
                               transform="translate(42.004,57.335)"
                               id="g182" /></g></g><g
                           transform="translate(-79.618,-25.046)"
                           id="g184" /></g></g><g
                       id="g186"><g
                         transform="translate(87.366,53.301)"
                         id="g188"><g
                           id="g190"><g
                             transform="translate(-49.752,-85.59)"
                             id="g192"><text
                               id="text196"
                               style="font-variant:normal;font-weight:normal;font-size:9.96259975px;font-family:CMR10;-inkscape-font-specification:CMR10;writing-mode:lr-tb;fill:#000000;fill-opacity:1;fill-rule:nonzero;stroke:none"
                               transform="matrix(1,0,0,-1,49.752,85.59)"><tspan
                                 id="tspan194"
                                 y="0"
                                 x="0">1</tspan></text>
<g
                               transform="translate(49.752,85.59)"
                               id="g198" /></g></g><g
                           transform="translate(-87.366,-53.301)"
                           id="g200" /></g></g><g
                       id="g202"><g
                         transform="translate(79.618,81.557)"
                         id="g204"><g
                           id="g206"><g
                             transform="translate(-42.004,-113.846)"
                             id="g208"><text
                               id="text212"
                               style="font-variant:normal;font-weight:normal;font-size:9.96259975px;font-family:CMR10;-inkscape-font-specification:CMR10;writing-mode:lr-tb;fill:#000000;fill-opacity:1;fill-rule:nonzero;stroke:none"
                               transform="matrix(1,0,0,-1,42.004,113.846)"><tspan
                                 id="tspan210"
                                 y="0"
                                 x="0">1</tspan></text>
<text
                               id="text216"
                               style="font-variant:normal;font-weight:normal;font-size:9.96259975px;font-family:CMMI10;-inkscape-font-specification:CMMI10;writing-mode:lr-tb;fill:#000000;fill-opacity:1;fill-rule:nonzero;stroke:none"
                               transform="matrix(1,0,0,-1,46.985,113.846)"><tspan
                                 id="tspan214"
                                 y="0"
                                 x="0">.</tspan></text>
<text
                               id="text220"
                               style="font-variant:normal;font-weight:normal;font-size:9.96259975px;font-family:CMR10;-inkscape-font-specification:CMR10;writing-mode:lr-tb;fill:#000000;fill-opacity:1;fill-rule:nonzero;stroke:none"
                               transform="matrix(1,0,0,-1,49.752,113.846)"><tspan
                                 id="tspan218"
                                 y="0"
                                 x="0">5</tspan></text>
<g
                               transform="translate(42.004,113.846)"
                               id="g222" /></g></g><g
                           transform="translate(-79.618,-81.557)"
                           id="g224" /></g></g><g
                       clip-path="url(#clipPath230)"
                       id="g226"><g
                         id="g232"><path
                           id="path234"
                           style="fill:none;stroke:#000000;stroke-width:0.79701;stroke-linecap:butt;stroke-linejoin:miter;stroke-miterlimit:10;stroke-dasharray:2.98883, 2.98883;stroke-dashoffset:0;stroke-opacity:1"
                           d="m 100.75056,56.51183 h 12.33463 12.33461 12.3346 12.3346 12.33461 12.3346 12.33461 12.33461 12.33461 12.33461 12.33461 12.33461 12.33459 12.33461 12.33461 12.3346 12.33461 12.33461 12.33461 12.33461 12.33461 12.33459 12.33461 12.33461" /></g><g
                         id="g236"><path
                           id="path238"
                           style="fill:none;stroke:#000000;stroke-width:0.79701;stroke-linecap:butt;stroke-linejoin:miter;stroke-miterlimit:10;stroke-dasharray:none;stroke-opacity:1"
                           d="M 245.65659,0 V 84.76775" /></g><g
                         id="g240"><g
                           transform="translate(235.713,2.199)"
                           id="g242"><g
                             id="g244"><g
                               transform="translate(5.978)"
                               id="g246"><g
                                 transform="rotate(90)"
                                 id="g248"><g
                                   transform="translate(-204.077,-34.488)"
                                   id="g250"><text
                                   id="text254"
                                   style="font-variant:normal;font-weight:normal;font-size:7.97009993px;font-family:CMR8;-inkscape-font-specification:CMR8;writing-mode:lr-tb;fill:#666666;fill-opacity:1;fill-rule:nonzero;stroke:none"
                                   transform="matrix(1,0,0,-1,204.077,34.488)"><tspan
                                   id="tspan252"
                                   y="0"
                                   x="0 4.2345142 8.4690285 12.703543 22.581684 27.396421 30.69684 34.931355 39.404972 42.698215 45.050194 48.813675">100%Frontier</tspan></text>
<g
                                   transform="translate(204.077,34.488)"
                                   id="g256" /></g></g><g
                                 transform="translate(-5.978)"
                                 id="g258" /></g></g><g
                             transform="translate(-235.713,-2.199)"
                             id="g260" /></g></g><g
                         id="g262"><path
                           id="path264"
                           style="fill:#000000;fill-opacity:0.3;fill-rule:nonzero;stroke:#000000;stroke-width:0.3985;stroke-linecap:butt;stroke-linejoin:miter;stroke-miterlimit:10;stroke-dasharray:none;stroke-opacity:0.3"
                           d="m 245.65659,0 v 84.76775 h 21.38235 V 0 Z" /></g></g></g><g
                     id="g266"><path
                       id="path268"
                       style="fill:#cf2525;fill-opacity:1;fill-rule:nonzero;stroke:#cf2525;stroke-width:0.79701;stroke-linecap:butt;stroke-linejoin:miter;stroke-miterlimit:10;stroke-dasharray:none;stroke-opacity:1"
                       d="m 108.34305,56.51183 c 0,1.21051 -0.98131,2.1918 -2.1918,2.1918 -1.21052,0 -2.19181,-0.98129 -2.19181,-2.1918 0,-1.2105 0.98129,-2.19181 2.19181,-2.19181 1.21049,0 2.1918,0.98131 2.1918,2.19181 z" /><path
                       id="path270"
                       style="fill:#cf2525;fill-opacity:1;fill-rule:nonzero;stroke:#cf2525;stroke-width:0.79701;stroke-linecap:butt;stroke-linejoin:miter;stroke-miterlimit:10;stroke-dasharray:none;stroke-opacity:1"
                       d="m 132.37498,56.73984 c 0,1.21051 -0.98129,2.1918 -2.1918,2.1918 -1.21049,0 -2.1918,-0.98129 -2.1918,-2.1918 0,-1.2105 0.98131,-2.19181 2.1918,-2.19181 1.21051,0 2.1918,0.98131 2.1918,2.19181 z" /><path
                       id="path272"
                       style="fill:#cf2525;fill-opacity:1;fill-rule:nonzero;stroke:#cf2525;stroke-width:0.79701;stroke-linecap:butt;stroke-linejoin:miter;stroke-miterlimit:10;stroke-dasharray:none;stroke-opacity:1"
                       d="m 153.83644,57.6139 c 0,1.21052 -0.98131,2.19181 -2.1918,2.19181 -1.21051,0 -2.1918,-0.98129 -2.1918,-2.19181 0,-1.21049 0.98129,-2.1918 2.1918,-2.1918 1.21049,0 2.1918,0.98131 2.1918,2.1918 z" /><path
                       id="path274"
                       style="fill:#cf2525;fill-opacity:1;fill-rule:nonzero;stroke:#cf2525;stroke-width:0.79701;stroke-linecap:butt;stroke-linejoin:miter;stroke-miterlimit:10;stroke-dasharray:none;stroke-opacity:1"
                       d="m 177.87039,57.70897 c 0,1.21049 -0.98131,2.1918 -2.1918,2.1918 -1.21051,0 -2.1918,-0.98131 -2.1918,-2.1918 0,-1.21051 0.98129,-2.1918 2.1918,-2.1918 1.21049,0 2.1918,0.98129 2.1918,2.1918 z" /><path
                       id="path276"
                       style="fill:#cf2525;fill-opacity:1;fill-rule:nonzero;stroke:#cf2525;stroke-width:0.79701;stroke-linecap:butt;stroke-linejoin:miter;stroke-miterlimit:10;stroke-dasharray:none;stroke-opacity:1"
                       d="m 199.32918,57.861 c 0,1.21049 -0.98129,2.1918 -2.19181,2.1918 -1.21049,0 -2.1918,-0.98131 -2.1918,-2.1918 0,-1.21052 0.98131,-2.19183 2.1918,-2.19183 1.21052,0 2.19181,0.98131 2.19181,2.19183 z" /><path
                       id="path278"
                       style="fill:#cf2525;fill-opacity:1;fill-rule:nonzero;stroke:#cf2525;stroke-width:0.79701;stroke-linecap:butt;stroke-linejoin:miter;stroke-miterlimit:10;stroke-dasharray:none;stroke-opacity:1"
                       d="m 223.36446,58.73506 c 0,1.2105 -0.98131,2.1918 -2.19181,2.1918 -1.21051,0 -2.19182,-0.9813 -2.19182,-2.1918 0,-1.21051 0.98131,-2.19182 2.19182,-2.19182 1.2105,0 2.19181,0.98131 2.19181,2.19182 z" /><path
                       id="path280"
                       style="fill:#cf2525;fill-opacity:1;fill-rule:nonzero;stroke:#cf2525;stroke-width:0.79701;stroke-linecap:butt;stroke-linejoin:miter;stroke-miterlimit:10;stroke-dasharray:none;stroke-opacity:1"
                       d="m 244.82324,59.1911 c 0,1.2105 -0.98129,2.1918 -2.1918,2.1918 -1.2105,0 -2.1918,-0.9813 -2.1918,-2.1918 0,-1.21051 0.9813,-2.1918 2.1918,-2.1918 1.21051,0 2.1918,0.98129 2.1918,2.1918 z" /></g><g
                     id="g282"><g
                       transform="translate(143.531,-25.382)"
                       id="g284"><g
                         id="g286"><g
                           transform="translate(-105.917,-6.907)"
                           id="g288"><text
                             id="text292"
                             style="font-variant:normal;font-weight:normal;font-size:9.96259975px;font-family:CMR10;-inkscape-font-specification:CMR10;writing-mode:lr-tb;fill:#000000;fill-opacity:1;fill-rule:nonzero;stroke:none"
                             transform="matrix(1,0,0,-1,105.917,6.907)"><tspan
                               id="tspan290"
                               y="0"
                               x="0 7.4719501 13.007171 21.030052 26.844225 31.271605 38.491501 43.472801 49.844879 57.662533 64.443077 71.915031">NumberofGPUs</tspan></text>
<g
                             transform="translate(105.917,6.907)"
                             id="g294" /></g></g><g
                         transform="translate(-143.531,25.382)"
                         id="g296" /></g></g><g
                     id="g298"><g
                       transform="rotate(90,35.7425,28.7145)"
                       id="g300"><g
                         id="g302"><g
                           transform="translate(-26.843,-25.261)"
                           id="g304"><text
                             id="text308"
                             style="font-variant:normal;font-weight:normal;font-size:9.96259975px;font-family:CMR10;-inkscape-font-specification:CMR10;writing-mode:lr-tb;fill:#000000;fill-opacity:1;fill-rule:nonzero;stroke:none"
                             transform="matrix(1,0,0,-1,26.843,25.261)"><tspan
                               id="tspan306"
                               y="0"
                               x="0 7.4719501 12.45325 16.3556 24.657434 29.638735 32.406345 35.173954 39.601334 44.028713 52.881481 62.294144 67.275444 70.043053 76.128212 83.323204 86.090813 94.392647">NormalizedWallTime</tspan></text>
<g
                             transform="translate(26.843,25.261)"
                             id="g310" /></g></g><g
                         transform="translate(-64.457,7.028)"
                         id="g312" /></g></g><g
                     id="g314"><g
                       id="g316" /><g
                       transform="translate(101.048,73.387)"
                       id="g318"><g
                         transform="translate(0.398)"
                         id="g320"><g
                           id="g322"><g
                             id="g324"><path
                               id="path326"
                               style="fill:none;stroke:#000000;stroke-width:0.79701;stroke-linecap:butt;stroke-linejoin:miter;stroke-miterlimit:10;stroke-dasharray:2.98883, 2.98883;stroke-dashoffset:0;stroke-opacity:1"
                               d="m 0,0 h 8.50412 8.50414" /></g></g><g
                           transform="translate(35.035)"
                           id="g328"><g
                             id="g330"><g
                               id="g332"><g
                                 transform="translate(-10.654,-2.712)"
                                 id="g334"><g
                                   id="g336"><g
                                   transform="translate(-88.213,-102.964)"
                                   id="g338"><text
                                   id="text342"
                                   style="font-variant:normal;font-weight:normal;font-size:9.96259975px;font-family:CMR10;-inkscape-font-specification:CMR10;writing-mode:lr-tb;fill:#000000;fill-opacity:1;fill-rule:nonzero;stroke:none"
                                   transform="matrix(1,0,0,-1,88.213,102.964)"><tspan
                                   id="tspan340"
                                   y="0"
                                   x="0 3.5974948 9.1327152 13.560095 18.541395">Ideal</tspan></text>
<g
                                   transform="translate(88.213,102.964)"
                                   id="g344" /></g></g><g
                                   transform="translate(10.654,2.712)"
                                   id="g346" /></g></g></g><g
                             transform="translate(11.316)"
                             id="g348"><g
                               id="g350"><g
                                 id="g352"><g
                                   id="g354"><path
                                   id="path356"
                                   style="fill:#cf2525;fill-opacity:1;fill-rule:nonzero;stroke:#cf2525;stroke-width:0.79701;stroke-linecap:butt;stroke-linejoin:miter;stroke-miterlimit:10;stroke-dasharray:none;stroke-opacity:1"
                                   d="m 10.69592,0 c 0,1.2105 -0.98131,2.1918 -2.1918,2.1918 -1.21051,0 -2.1918,-0.9813 -2.1918,-2.1918 0,-1.2105 0.98129,-2.1918 2.1918,-2.1918 1.21049,0 2.1918,0.9813 2.1918,2.1918 z" /></g></g></g><g
                               transform="translate(28.947)"
                               id="g358"><g
                                 id="g360"><g
                                   id="g362"><g
                                   transform="translate(-11.277,-2.656)"
                                   id="g364"><g
                                   id="g366"><g
                                   transform="translate(-127.853,-103.02)"
                                   id="g368"><text
                                   id="text372"
                                   style="font-variant:normal;font-weight:normal;font-size:9.96259975px;font-family:CMR10;-inkscape-font-specification:CMR10;writing-mode:lr-tb;fill:#cf2525;fill-opacity:1;fill-rule:nonzero;stroke:none"
                                   transform="matrix(1,0,0,-1,127.853,103.02)"><tspan
                                   id="tspan370"
                                   y="0"
                                   x="0 9.1327152 15.357347">MFC</tspan></text>
<g
                                   transform="translate(127.853,103.02)"
                                   id="g374" /></g></g><g
                                   transform="translate(11.277,2.656)"
                                   id="g376" /></g></g></g><g
                                 transform="translate(-75.696)"
                                 id="g378" /></g></g></g></g><g
                         transform="translate(-101.048,-73.387)"
                         id="g380" /></g></g></g></g><g
                 transform="translate(54.218,-28.702)"
                 id="g382" /></g><g
               transform="translate(41.649,28.702)"
               id="g384" /></g><g
             id="g386" /><g
             id="g388" /></g></g></g></g></svg>
