<?xml version="1.0" encoding="UTF-8" standalone="no"?>
<svg
style="background-color:white"
   xmlns:dc="http://purl.org/dc/elements/1.1/"
   xmlns:cc="http://creativecommons.org/ns#"
   xmlns:rdf="http://www.w3.org/1999/02/22-rdf-syntax-ns#"
   xmlns:svg="http://www.w3.org/2000/svg"
   xmlns="http://www.w3.org/2000/svg"
   viewBox="0 0 346.01199 169.87334"
   height="100%"
   width="100%"
   xml:space="preserve"
   id="svg2"
   version="1.1"><metadata
     id="metadata8"><rdf:RDF><cc:Work
         rdf:about=""><dc:format>image/svg+xml</dc:format><dc:type
           rdf:resource="http://purl.org/dc/dcmitype/StillImage" /></cc:Work></rdf:RDF></metadata><defs
     id="defs6"><clipPath
       id="clipPath210"
       clipPathUnits="userSpaceOnUse"><path
         id="path208"
         d="M 120.6951,0 H 291.86545 V 84.76775 H 120.6951 Z" /></clipPath></defs><g
     transform="matrix(1.3333333,0,0,-1.3333333,0,169.87333)"
     id="g10"><g
       transform="translate(58.253,32.289)"
       id="g12"><g
         id="g14"><g
           id="g16" /><g
           id="g18"><g
             id="g20" /><g
             id="g22" /><g
             id="g24"><g
               id="g26" /></g><g
             id="g28" /><g
             id="g30" /><g
             id="g32" /><g
             id="g34" /><g
             transform="translate(-41.649,-28.702)"
             id="g36"><g
               transform="translate(-79.044,28.702)"
               id="g38"><g
                 id="g40"><g
                   id="g42" /><g
                   id="g44"><g
                     id="g46"><g
                       id="g48"><g
                         id="g50"><path
                           id="path52"
                           style="fill:none;stroke:#808080;stroke-width:0.19925;stroke-linecap:butt;stroke-linejoin:miter;stroke-miterlimit:10;stroke-dasharray:none;stroke-opacity:1"
                           d="M 120.6951,0 V 2.83502 M 123.93921,0 V 2.83502 M 126.84123,0 V 2.83502 M 145.93272,0 V 2.83502 M 157.10074,0 V 2.83502 M 165.02422,0 V 2.83502 M 171.17035,0 V 2.83502 M 176.19223,0 V 2.83502 M 180.43787,0 V 2.83502 M 184.1157,0 V 2.83502 M 187.35983,0 V 2.83502 M 190.26184,0 V 2.83502 M 209.35333,0 V 2.83502 M 220.52135,0 V 2.83502 M 228.44484,0 V 2.83502 M 234.59096,0 V 2.83502 M 239.61284,0 V 2.83502 M 243.85849,0 V 2.83502 M 247.53633,0 V 2.83502 M 250.78044,0 V 2.83502 M 253.68246,0 V 2.83502 M 272.77396,0 V 2.83502 M 283.94197,0 V 2.83502 M 291.86545,0 V 2.83502 M 120.6951,84.76775 V 81.9327 m 3.24411,2.83505 V 81.9327 m 2.90202,2.83505 V 81.9327 m 19.09149,2.83505 V 81.9327 m 11.16802,2.83505 V 81.9327 m 7.92348,2.83505 V 81.9327 m 6.14613,2.83505 V 81.9327 m 5.02188,2.83505 V 81.9327 m 4.24564,2.83505 V 81.9327 m 3.67783,2.83505 V 81.9327 m 3.24413,2.83505 V 81.9327 m 2.90201,2.83505 V 81.9327 m 19.09149,2.83505 V 81.9327 m 11.16802,2.83505 V 81.9327 m 7.92349,2.83505 V 81.9327 m 6.14612,2.83505 V 81.9327 m 5.02188,2.83505 V 81.9327 m 4.24565,2.83505 V 81.9327 m 3.67784,2.83505 V 81.9327 m 3.24411,2.83505 V 81.9327 m 2.90202,2.83505 V 81.9327 m 19.0915,2.83505 V 81.9327 m 11.16801,2.83505 V 81.9327 m 7.92348,2.83505 V 81.9327" /></g><g
                         id="g54"><path
                           id="path56"
                           style="fill:none;stroke:#808080;stroke-width:0.19925;stroke-linecap:butt;stroke-linejoin:miter;stroke-miterlimit:10;stroke-dasharray:none;stroke-opacity:1"
                           d="M 126.84123,0 V 4.25212 M 190.26184,0 V 4.25212 M 253.68246,0 V 4.25212 M 126.84123,84.76775 V 80.5156 m 63.42061,4.25215 V 80.5156 m 63.42062,4.25215 V 80.5156" /></g></g><g
                       id="g58"><g
                         id="g60"><path
                           id="path62"
                           style="fill:none;stroke:#808080;stroke-width:0.19925;stroke-linecap:butt;stroke-linejoin:miter;stroke-miterlimit:10;stroke-dasharray:none;stroke-opacity:1"
                           d="m 120.6951,0 h 4.24353 m -4.24353,28.2559 h 4.24353 m -4.24353,28.25593 h 4.24353 m -4.24353,28.25592 h 4.24353 M 291.86545,0 h -4.24355 m 4.24355,28.2559 h -4.24355 m 4.24355,28.25593 h -4.24355 m 4.24355,28.25592 h -4.24355" /></g></g><path
                       id="path64"
                       style="fill:none;stroke:#000000;stroke-width:0.3985;stroke-linecap:butt;stroke-linejoin:miter;stroke-miterlimit:10;stroke-dasharray:none;stroke-opacity:1"
                       d="M 120.6951,0 V 84.76775 H 291.86545 V 0 Z" /><g
                       id="g66"><g
                         transform="translate(119.623,-11.629)"
                         id="g68"><g
                           id="g70"><g
                             transform="translate(-57.183,-20.66)"
                             id="g72"><text
                               id="text76"
                               style="font-variant:normal;font-weight:normal;font-size:9.96259975px;font-family:CMR10;-inkscape-font-specification:CMR10;writing-mode:lr-tb;fill:#000000;fill-opacity:1;fill-rule:nonzero;stroke:none"
                               transform="matrix(1,0,0,-1,57.183,20.66)"><tspan
                                 id="tspan74"
                                 y="0"
                                 x="0 4.9812999">10</tspan></text>
<text
                               id="text80"
                               style="font-variant:normal;font-weight:normal;font-size:6.97380018px;font-family:CMR7;-inkscape-font-specification:CMR7;writing-mode:lr-tb;fill:#000000;fill-opacity:1;fill-rule:nonzero;stroke:none"
                               transform="matrix(1,0,0,-1,67.146,24.275)"><tspan
                                 id="tspan78"
                                 y="0"
                                 x="0">2</tspan></text>
<g
                               transform="translate(57.183,20.66)"
                               id="g82" /></g></g><g
                           transform="translate(-119.623,11.629)"
                           id="g84" /></g></g><g
                       id="g86"><g
                         transform="translate(183.043,-11.629)"
                         id="g88"><g
                           id="g90"><g
                             transform="translate(-120.603,-20.66)"
                             id="g92"><text
                               id="text96"
                               style="font-variant:normal;font-weight:normal;font-size:9.96259975px;font-family:CMR10;-inkscape-font-specification:CMR10;writing-mode:lr-tb;fill:#000000;fill-opacity:1;fill-rule:nonzero;stroke:none"
                               transform="matrix(1,0,0,-1,120.603,20.66)"><tspan
                                 id="tspan94"
                                 y="0"
                                 x="0 4.9812999">10</tspan></text>
<text
                               id="text100"
                               style="font-variant:normal;font-weight:normal;font-size:6.97380018px;font-family:CMR7;-inkscape-font-specification:CMR7;writing-mode:lr-tb;fill:#000000;fill-opacity:1;fill-rule:nonzero;stroke:none"
                               transform="matrix(1,0,0,-1,130.566,24.275)"><tspan
                                 id="tspan98"
                                 y="0"
                                 x="0">3</tspan></text>
<g
                               transform="translate(120.603,20.66)"
                               id="g102" /></g></g><g
                           transform="translate(-183.043,11.629)"
                           id="g104" /></g></g><g
                       id="g106"><g
                         transform="translate(246.463,-11.629)"
                         id="g108"><g
                           id="g110"><g
                             transform="translate(-184.023,-20.66)"
                             id="g112"><text
                               id="text116"
                               style="font-variant:normal;font-weight:normal;font-size:9.96259975px;font-family:CMR10;-inkscape-font-specification:CMR10;writing-mode:lr-tb;fill:#000000;fill-opacity:1;fill-rule:nonzero;stroke:none"
                               transform="matrix(1,0,0,-1,184.023,20.66)"><tspan
                                 id="tspan114"
                                 y="0"
                                 x="0 4.9812999">10</tspan></text>
<text
                               id="text120"
                               style="font-variant:normal;font-weight:normal;font-size:6.97380018px;font-family:CMR7;-inkscape-font-specification:CMR7;writing-mode:lr-tb;fill:#000000;fill-opacity:1;fill-rule:nonzero;stroke:none"
                               transform="matrix(1,0,0,-1,193.986,24.275)"><tspan
                                 id="tspan118"
                                 y="0"
                                 x="0">4</tspan></text>
<g
                               transform="translate(184.023,20.66)"
                               id="g122" /></g></g><g
                           transform="translate(-246.463,11.629)"
                           id="g124" /></g></g><g
                       id="g126"><g
                         transform="translate(112.192,-3.21)"
                         id="g128"><g
                           id="g130"><g
                             transform="translate(-49.752,-29.079)"
                             id="g132"><text
                               id="text136"
                               style="font-variant:normal;font-weight:normal;font-size:9.96259975px;font-family:CMR10;-inkscape-font-specification:CMR10;writing-mode:lr-tb;fill:#000000;fill-opacity:1;fill-rule:nonzero;stroke:none"
                               transform="matrix(1,0,0,-1,49.752,29.079)"><tspan
                                 id="tspan134"
                                 y="0"
                                 x="0">0</tspan></text>
<g
                               transform="translate(49.752,29.079)"
                               id="g138" /></g></g><g
                           transform="translate(-112.192,3.21)"
                           id="g140" /></g></g><g
                       id="g142"><g
                         transform="translate(104.444,25.046)"
                         id="g144"><g
                           id="g146"><g
                             transform="translate(-42.004,-57.335)"
                             id="g148"><text
                               id="text152"
                               style="font-variant:normal;font-weight:normal;font-size:9.96259975px;font-family:CMR10;-inkscape-font-specification:CMR10;writing-mode:lr-tb;fill:#000000;fill-opacity:1;fill-rule:nonzero;stroke:none"
                               transform="matrix(1,0,0,-1,42.004,57.335)"><tspan
                                 id="tspan150"
                                 y="0"
                                 x="0">0</tspan></text>
<text
                               id="text156"
                               style="font-variant:normal;font-weight:normal;font-size:9.96259975px;font-family:CMMI10;-inkscape-font-specification:CMMI10;writing-mode:lr-tb;fill:#000000;fill-opacity:1;fill-rule:nonzero;stroke:none"
                               transform="matrix(1,0,0,-1,46.985,57.335)"><tspan
                                 id="tspan154"
                                 y="0"
                                 x="0">.</tspan></text>
<text
                               id="text160"
                               style="font-variant:normal;font-weight:normal;font-size:9.96259975px;font-family:CMR10;-inkscape-font-specification:CMR10;writing-mode:lr-tb;fill:#000000;fill-opacity:1;fill-rule:nonzero;stroke:none"
                               transform="matrix(1,0,0,-1,49.752,57.335)"><tspan
                                 id="tspan158"
                                 y="0"
                                 x="0">5</tspan></text>
<g
                               transform="translate(42.004,57.335)"
                               id="g162" /></g></g><g
                           transform="translate(-104.444,-25.046)"
                           id="g164" /></g></g><g
                       id="g166"><g
                         transform="translate(112.192,53.301)"
                         id="g168"><g
                           id="g170"><g
                             transform="translate(-49.752,-85.59)"
                             id="g172"><text
                               id="text176"
                               style="font-variant:normal;font-weight:normal;font-size:9.96259975px;font-family:CMR10;-inkscape-font-specification:CMR10;writing-mode:lr-tb;fill:#000000;fill-opacity:1;fill-rule:nonzero;stroke:none"
                               transform="matrix(1,0,0,-1,49.752,85.59)"><tspan
                                 id="tspan174"
                                 y="0"
                                 x="0">1</tspan></text>
<g
                               transform="translate(49.752,85.59)"
                               id="g178" /></g></g><g
                           transform="translate(-112.192,-53.301)"
                           id="g180" /></g></g><g
                       id="g182"><g
                         transform="translate(104.444,81.557)"
                         id="g184"><g
                           id="g186"><g
                             transform="translate(-42.004,-113.846)"
                             id="g188"><text
                               id="text192"
                               style="font-variant:normal;font-weight:normal;font-size:9.96259975px;font-family:CMR10;-inkscape-font-specification:CMR10;writing-mode:lr-tb;fill:#000000;fill-opacity:1;fill-rule:nonzero;stroke:none"
                               transform="matrix(1,0,0,-1,42.004,113.846)"><tspan
                                 id="tspan190"
                                 y="0"
                                 x="0">1</tspan></text>
<text
                               id="text196"
                               style="font-variant:normal;font-weight:normal;font-size:9.96259975px;font-family:CMMI10;-inkscape-font-specification:CMMI10;writing-mode:lr-tb;fill:#000000;fill-opacity:1;fill-rule:nonzero;stroke:none"
                               transform="matrix(1,0,0,-1,46.985,113.846)"><tspan
                                 id="tspan194"
                                 y="0"
                                 x="0">.</tspan></text>
<text
                               id="text200"
                               style="font-variant:normal;font-weight:normal;font-size:9.96259975px;font-family:CMR10;-inkscape-font-specification:CMR10;writing-mode:lr-tb;fill:#000000;fill-opacity:1;fill-rule:nonzero;stroke:none"
                               transform="matrix(1,0,0,-1,49.752,113.846)"><tspan
                                 id="tspan198"
                                 y="0"
                                 x="0">5</tspan></text>
<g
                               transform="translate(42.004,113.846)"
                               id="g202" /></g></g><g
                           transform="translate(-104.444,-81.557)"
                           id="g204" /></g></g><g
                       clip-path="url(#clipPath210)"
                       id="g206"><g
                         id="g212"><path
                           id="path214"
                           style="fill:none;stroke:#000000;stroke-width:0.79701;stroke-linecap:butt;stroke-linejoin:miter;stroke-miterlimit:10;stroke-dasharray:2.98883, 2.98883;stroke-dashoffset:0;stroke-opacity:1"
                           d="m 126.84123,56.51183 h 6.87572 6.87573 6.87573 6.87574 6.87571 6.87574 6.87573 6.87573 6.87572 6.87573 6.87573 6.87572 6.87574 6.87573 6.87573 6.87571 6.87573 6.87575 6.87574 6.87571 6.87574 6.87573 6.87573 6.87572" /></g><g
                         id="g216"><path
                           id="path218"
                           style="fill:none;stroke:#000000;stroke-width:0.79701;stroke-linecap:butt;stroke-linejoin:miter;stroke-miterlimit:10;stroke-dasharray:none;stroke-opacity:1"
                           d="M 281.69223,0 V 84.76775" /></g><g
                         id="g220"><g
                           transform="translate(271.748,2.38)"
                           id="g222"><g
                             id="g224"><g
                               transform="translate(5.978)"
                               id="g226"><g
                                 transform="rotate(90)"
                                 id="g228"><g
                                   transform="translate(-215.286,-34.669)"
                                   id="g230"><text
                                   id="text234"
                                   style="font-variant:normal;font-weight:normal;font-size:7.97009993px;font-family:CMR8;-inkscape-font-specification:CMR8;writing-mode:lr-tb;fill:#666666;fill-opacity:1;fill-rule:nonzero;stroke:none"
                                   transform="matrix(1,0,0,-1,215.286,34.669)"><tspan
                                   id="tspan232"
                                   y="0"
                                   x="0 4.2345142 8.4690285 12.703543 22.581684 27.286434 31.991184 39.047913 46.104637 48.456615">100%Summit</tspan></text>
<g
                                   transform="translate(215.286,34.669)"
                                   id="g236" /></g></g><g
                                 transform="translate(-5.978)"
                                 id="g238" /></g></g><g
                             transform="translate(-271.748,-2.38)"
                             id="g240" /></g></g><g
                         id="g242"><path
                           id="path244"
                           style="fill:#000000;fill-opacity:0.3;fill-rule:nonzero;stroke:#000000;stroke-width:0.3985;stroke-linecap:butt;stroke-linejoin:miter;stroke-miterlimit:10;stroke-dasharray:none;stroke-opacity:0.3"
                           d="m 281.69223,0 v 84.76775 h 10.17322 V 0 Z" /></g></g></g><g
                     id="g246"><path
                       id="path248"
                       style="fill:#cf2525;fill-opacity:1;fill-rule:nonzero;stroke:#cf2525;stroke-width:0.79701;stroke-linecap:butt;stroke-linejoin:miter;stroke-miterlimit:10;stroke-dasharray:none;stroke-opacity:1"
                       d="m 150.24397,56.51183 c 0,1.21051 -0.98131,2.1918 -2.1918,2.1918 -1.21051,0 -2.1918,-0.98129 -2.1918,-2.1918 0,-1.2105 0.98129,-2.19181 2.1918,-2.19181 1.21049,0 2.1918,0.98131 2.1918,2.19181 z" /><path
                       id="path250"
                       style="fill:#cf2525;fill-opacity:1;fill-rule:nonzero;stroke:#cf2525;stroke-width:0.79701;stroke-linecap:butt;stroke-linejoin:miter;stroke-miterlimit:10;stroke-dasharray:none;stroke-opacity:1"
                       d="m 169.33546,56.50504 c 0,1.21049 -0.98129,2.1918 -2.1918,2.1918 -1.21049,0 -2.1918,-0.98131 -2.1918,-2.1918 0,-1.21051 0.98131,-2.19181 2.1918,-2.19181 1.21051,0 2.1918,0.9813 2.1918,2.19181 z" /><path
                       id="path252"
                       style="fill:#cf2525;fill-opacity:1;fill-rule:nonzero;stroke:#cf2525;stroke-width:0.79701;stroke-linecap:butt;stroke-linejoin:miter;stroke-miterlimit:10;stroke-dasharray:none;stroke-opacity:1"
                       d="m 188.42613,57.01144 c 0,1.2105 -0.98131,2.19181 -2.1918,2.19181 -1.21051,0 -2.19182,-0.98131 -2.19182,-2.19181 0,-1.21051 0.98131,-2.1918 2.19182,-2.1918 1.21049,0 2.1918,0.98129 2.1918,2.1918 z" /><path
                       id="path254"
                       style="fill:#cf2525;fill-opacity:1;fill-rule:nonzero;stroke:#cf2525;stroke-width:0.79701;stroke-linecap:butt;stroke-linejoin:miter;stroke-miterlimit:10;stroke-dasharray:none;stroke-opacity:1"
                       d="m 207.51678,57.01144 c 0,1.2105 -0.98129,2.19181 -2.1918,2.19181 -1.21051,0 -2.1918,-0.98131 -2.1918,-2.19181 0,-1.21051 0.98129,-2.1918 2.1918,-2.1918 1.21051,0 2.1918,0.98129 2.1918,2.1918 z" /><path
                       id="path256"
                       style="fill:#cf2525;fill-opacity:1;fill-rule:nonzero;stroke:#cf2525;stroke-width:0.79701;stroke-linecap:butt;stroke-linejoin:miter;stroke-miterlimit:10;stroke-dasharray:none;stroke-opacity:1"
                       d="m 226.60828,57.88162 c 0,1.2105 -0.9813,2.19181 -2.19181,2.19181 -1.21049,0 -2.1918,-0.98131 -2.1918,-2.19181 0,-1.21051 0.98131,-2.19182 2.1918,-2.19182 1.21051,0 2.19181,0.98131 2.19181,2.19182 z" /><path
                       id="path258"
                       style="fill:#cf2525;fill-opacity:1;fill-rule:nonzero;stroke:#cf2525;stroke-width:0.79701;stroke-linecap:butt;stroke-linejoin:miter;stroke-miterlimit:10;stroke-dasharray:none;stroke-opacity:1"
                       d="m 245.69978,57.58647 c 0,1.2105 -0.9813,2.1918 -2.1918,2.1918 -1.21051,0 -2.19182,-0.9813 -2.19182,-2.1918 0,-1.21051 0.98131,-2.1918 2.19182,-2.1918 1.2105,0 2.1918,0.98129 2.1918,2.1918 z" /><path
                       id="path260"
                       style="fill:#cf2525;fill-opacity:1;fill-rule:nonzero;stroke:#cf2525;stroke-width:0.79701;stroke-linecap:butt;stroke-linejoin:miter;stroke-miterlimit:10;stroke-dasharray:none;stroke-opacity:1"
                       d="m 264.79254,58.10283 c 0,1.21051 -0.98131,2.19182 -2.19182,2.19182 -1.21049,0 -2.1918,-0.98131 -2.1918,-2.19182 0,-1.2105 0.98131,-2.1918 2.1918,-2.1918 1.21051,0 2.19182,0.9813 2.19182,2.1918 z" /></g><g
                     id="g262"><g
                       transform="translate(168.357,-25.382)"
                       id="g264"><g
                         id="g266"><g
                           transform="translate(-105.917,-6.907)"
                           id="g268"><text
                             id="text272"
                             style="font-variant:normal;font-weight:normal;font-size:9.96259975px;font-family:CMR10;-inkscape-font-specification:CMR10;writing-mode:lr-tb;fill:#000000;fill-opacity:1;fill-rule:nonzero;stroke:none"
                             transform="matrix(1,0,0,-1,105.917,6.907)"><tspan
                               id="tspan270"
                               y="0"
                               x="0 7.4719501 13.007171 21.030052 26.844225 31.271605 38.491501 43.472801 49.844879 57.662533 64.443077 71.915031">NumberofGPUs</tspan></text>
<g
                             transform="translate(105.917,6.907)"
                             id="g274" /></g></g><g
                         transform="translate(-168.357,25.382)"
                         id="g276" /></g></g><g
                     id="g278"><g
                       transform="rotate(90,48.1555,41.1275)"
                       id="g280"><g
                         id="g282"><g
                           transform="translate(-26.843,-25.261)"
                           id="g284"><text
                             id="text288"
                             style="font-variant:normal;font-weight:normal;font-size:9.96259975px;font-family:CMR10;-inkscape-font-specification:CMR10;writing-mode:lr-tb;fill:#000000;fill-opacity:1;fill-rule:nonzero;stroke:none"
                             transform="matrix(1,0,0,-1,26.843,25.261)"><tspan
                               id="tspan286"
                               y="0"
                               x="0 7.4719501 12.45325 16.3556 24.657434 29.638735 32.406345 35.173954 39.601334 44.028713 52.881481 62.294144 67.275444 70.043053 76.128212 83.323204 86.090813 94.392647">NormalizedWallTime</tspan></text>
<g
                             transform="translate(26.843,25.261)"
                             id="g290" /></g></g><g
                         transform="translate(-89.283,7.028)"
                         id="g292" /></g></g><g
                     id="g294"><g
                       id="g296" /><g
                       transform="translate(125.874,73.387)"
                       id="g298"><g
                         transform="translate(0.398)"
                         id="g300"><g
                           id="g302"><g
                             id="g304"><path
                               id="path306"
                               style="fill:none;stroke:#000000;stroke-width:0.79701;stroke-linecap:butt;stroke-linejoin:miter;stroke-miterlimit:10;stroke-dasharray:2.98883, 2.98883;stroke-dashoffset:0;stroke-opacity:1"
                               d="m 0,0 h 8.50412 8.50414" /></g></g><g
                           transform="translate(35.035)"
                           id="g308"><g
                             id="g310"><g
                               id="g312"><g
                                 transform="translate(-10.654,-2.712)"
                                 id="g314"><g
                                   id="g316"><g
                                   transform="translate(-88.213,-102.964)"
                                   id="g318"><text
                                   id="text322"
                                   style="font-variant:normal;font-weight:normal;font-size:9.96259975px;font-family:CMR10;-inkscape-font-specification:CMR10;writing-mode:lr-tb;fill:#000000;fill-opacity:1;fill-rule:nonzero;stroke:none"
                                   transform="matrix(1,0,0,-1,88.213,102.964)"><tspan
                                   id="tspan320"
                                   y="0"
                                   x="0 3.5974948 9.1327152 13.560095 18.541395">Ideal</tspan></text>
<g
                                   transform="translate(88.213,102.964)"
                                   id="g324" /></g></g><g
                                   transform="translate(10.654,2.712)"
                                   id="g326" /></g></g></g><g
                             transform="translate(11.316)"
                             id="g328"><g
                               id="g330"><g
                                 id="g332"><g
                                   id="g334"><path
                                   id="path336"
                                   style="fill:#cf2525;fill-opacity:1;fill-rule:nonzero;stroke:#cf2525;stroke-width:0.79701;stroke-linecap:butt;stroke-linejoin:miter;stroke-miterlimit:10;stroke-dasharray:none;stroke-opacity:1"
                                   d="m 10.69592,0 c 0,1.2105 -0.98131,2.1918 -2.1918,2.1918 -1.21051,0 -2.1918,-0.9813 -2.1918,-2.1918 0,-1.2105 0.98129,-2.1918 2.1918,-2.1918 1.21049,0 2.1918,0.9813 2.1918,2.1918 z" /></g></g></g><g
                               transform="translate(28.947)"
                               id="g338"><g
                                 id="g340"><g
                                   id="g342"><g
                                   transform="translate(-11.277,-2.656)"
                                   id="g344"><g
                                   id="g346"><g
                                   transform="translate(-127.853,-103.02)"
                                   id="g348"><text
                                   id="text352"
                                   style="font-variant:normal;font-weight:normal;font-size:9.96259975px;font-family:CMR10;-inkscape-font-specification:CMR10;writing-mode:lr-tb;fill:#cf2525;fill-opacity:1;fill-rule:nonzero;stroke:none"
                                   transform="matrix(1,0,0,-1,127.853,103.02)"><tspan
                                   id="tspan350"
                                   y="0"
                                   x="0 9.1327152 15.357347">MFC</tspan></text>
<g
                                   transform="translate(127.853,103.02)"
                                   id="g354" /></g></g><g
                                   transform="translate(11.277,2.656)"
                                   id="g356" /></g></g></g><g
                                 transform="translate(-75.696)"
                                 id="g358" /></g></g></g></g><g
                         transform="translate(-125.874,-73.387)"
                         id="g360" /></g></g></g></g><g
                 transform="translate(79.044,-28.702)"
                 id="g362" /></g><g
               transform="translate(41.649,28.702)"
               id="g364" /></g><g
             id="g366" /><g
             id="g368" /></g></g></g></g></svg>
